<svg width="22" height="22" viewBox="0 0 22 22" fill="none" xmlns="http://www.w3.org/2000/svg">
<path d="M15.8748 0.0705833C16.9913 0.121917 17.7632 0.286 18.4763 0.562833C19.1525 0.81566 19.7647 1.21439 20.2693 1.73067C20.7856 2.23528 21.1843 2.84746 21.4372 3.52367C21.714 4.23775 21.8781 5.00867 21.9294 6.12517C21.9927 7.50933 22 7.997 22 11C22 14.003 21.9927 14.4907 21.9294 15.8748C21.8781 16.9913 21.714 17.7632 21.4372 18.4772C21.1842 19.1531 20.7855 19.765 20.2693 20.2693C19.7647 20.7856 19.1526 21.1844 18.4763 21.4372C17.7623 21.714 16.9913 21.8781 15.8748 21.9294C14.4907 21.9927 14.0039 22 11 22C7.99608 22 7.50842 21.9927 6.12517 21.9294C5.00867 21.8781 4.23683 21.714 3.52275 21.4372C2.84686 21.1842 2.235 20.7855 1.73067 20.2693C1.21439 19.7647 0.81566 19.1525 0.562833 18.4763C0.286 17.7623 0.121917 16.9913 0.0705833 15.8748C0.00733333 14.4925 0 14.0048 0 11C0 7.99608 0.00733333 7.5075 0.0705833 6.12517C0.121917 5.00867 0.286 4.23683 0.562833 3.52367C0.81566 2.84746 1.21439 2.23528 1.73067 1.73067C2.23501 1.2145 2.84687 0.815779 3.52275 0.562833C4.23775 0.286 5.00867 0.121917 6.12517 0.0705833C7.5075 0.00733333 7.99517 0 11 0C14.0039 0 14.4925 0.00733333 15.8748 0.0705833ZM11 2.44475C8.03 2.44475 7.57533 2.45117 6.23608 2.51258C5.38633 2.55108 4.87667 2.65925 4.40825 2.84167C4.04871 2.97204 3.72384 3.18308 3.45858 3.45858C3.18249 3.72336 2.97136 4.04837 2.84167 4.40825C2.66017 4.87575 2.55108 5.38633 2.51258 6.23608C2.45117 7.57533 2.44475 8.03 2.44475 11C2.44475 13.97 2.45117 14.4247 2.51258 15.7639C2.55108 16.6137 2.65925 17.1233 2.84167 17.5908C2.9975 17.9905 3.1625 18.2444 3.45858 18.5414C3.75558 18.8384 4.0095 19.0034 4.40825 19.1583C4.87575 19.3398 5.38633 19.4489 6.23608 19.4874C7.57625 19.5488 8.03092 19.5553 11 19.5553C13.97 19.5553 14.4238 19.5488 15.7639 19.4874C16.6137 19.4489 17.1233 19.3407 17.5918 19.1583C17.9513 19.028 18.2762 18.8169 18.5414 18.5414C18.8384 18.2444 19.0034 17.9905 19.1583 17.5918C19.3398 17.1243 19.4489 16.6137 19.4874 15.7639C19.5488 14.4238 19.5553 13.9691 19.5553 11C19.5553 8.03092 19.5488 7.57625 19.4874 6.23608C19.4489 5.38633 19.3407 4.87667 19.1583 4.40917C19.0287 4.04899 18.8176 3.72366 18.5414 3.45858C18.2764 3.1824 17.951 2.97126 17.5908 2.84167C17.1233 2.66017 16.6127 2.55108 15.763 2.51258C14.4237 2.45117 13.9691 2.44475 10.9991 2.44475M10.9991 16.7035C9.48642 16.7035 8.03571 16.1026 6.9661 15.033C5.89649 13.9634 5.29558 12.5127 5.29558 11C5.29558 9.48734 5.89649 8.03663 6.9661 6.96702C8.03571 5.8974 9.48642 5.2965 10.9991 5.2965C12.5117 5.2965 13.9625 5.8974 15.0321 6.96702C16.1017 8.03663 16.7026 9.48734 16.7026 11C16.7026 12.5127 16.1017 13.9634 15.0321 15.033C13.9625 16.1026 12.5117 16.7035 10.9991 16.7035ZM10.9991 14.2597C11.8636 14.2597 12.6927 13.9162 13.304 13.3049C13.9153 12.6936 14.2588 11.8645 14.2588 11C14.2588 10.1355 13.9153 9.30637 13.304 8.69507C12.6927 8.08376 11.8636 7.74033 10.9991 7.74033C10.1346 7.74033 9.30546 8.08376 8.69415 8.69507C8.08285 9.30637 7.73942 10.1355 7.73942 11C7.73942 11.8645 8.08285 12.6936 8.69415 13.3049C9.30546 13.9162 10.1346 14.2597 10.9991 14.2597ZM16.7026 6.51842C16.3784 6.51842 16.0675 6.38963 15.8382 6.16039C15.609 5.93115 15.4802 5.62024 15.4802 5.29604C15.4802 4.97185 15.609 4.66093 15.8382 4.43169C16.0675 4.20245 16.3784 4.07367 16.7026 4.07367C17.0268 4.07367 17.3377 4.20245 17.5669 4.43169C17.7962 4.66093 17.925 4.97185 17.925 5.29604C17.925 5.62024 17.7962 5.93115 17.5669 6.16039C17.3377 6.38963 17.0268 6.51842 16.7026 6.51842Z" fill="#26809C"/>
</svg>
