<svg width="22" height="22" viewBox="0 0 22 22" fill="none" xmlns="http://www.w3.org/2000/svg">
<path d="M19.4 0.199951H2.60001C1.28001 0.199951 0.200012 1.27995 0.200012 2.59995V19.4C0.200012 20.7212 1.28001 21.8 2.60001 21.8H11V13.4H8.60001V10.43H11V7.96995C11 5.37315 12.4544 3.54915 15.5192 3.54915L17.6828 3.55155V6.67755H16.2464C15.0536 6.67755 14.6 7.57275 14.6 8.40315V10.4312H17.6816L17 13.4H14.6V21.8H19.4C20.72 21.8 21.8 20.7212 21.8 19.4V2.59995C21.8 1.27995 20.72 0.199951 19.4 0.199951Z" fill="#26809C"/>
</svg>
