<svg width="500" height="500" viewBox="0 0 500 500" fill="none" xmlns="http://www.w3.org/2000/svg">
<g clip-path="url(#clip0_420_1552)">
<path d="M274.799 494.596C254.532 485.003 246.456 462.196 243.599 440.953C243.117 437.426 242.106 433.758 243.258 430.373C244.41 426.987 247.961 424.224 251.37 425.177C254.203 425.964 255.86 428.809 257.753 431.055C260.271 434.084 263.598 436.335 267.346 437.544C269.791 438.332 272.695 438.578 274.705 436.98C277.456 434.781 277.056 430.526 276.492 427.022C275.34 420.525 274.212 414.028 273.106 407.531C272.31 404.064 272.076 400.492 272.413 396.951C272.93 393.424 274.823 389.897 277.997 388.439C281.171 386.982 285.627 388.169 286.908 391.484C287.286 392.91 287.569 394.359 287.754 395.822C288.095 397.268 289.048 398.761 290.494 398.937C291.94 399.114 293.197 397.879 294.079 396.668C297.089 392.519 298.782 387.546 300.31 382.62C301.838 377.694 303.272 372.675 305.906 368.254C308.539 363.834 312.559 360.025 317.532 358.849C322.505 357.674 328.383 359.908 330.464 364.622C332.545 369.336 330.534 374.849 328.113 379.387C324.435 386.106 319.806 392.26 314.37 397.656C313.286 398.52 312.504 399.705 312.136 401.042C311.772 403.51 314.382 405.462 316.839 405.838C319.59 406.261 322.387 405.509 325.174 405.368C327.96 405.227 331.122 405.932 332.603 408.342C334.637 411.681 332.274 415.948 329.747 418.922C324.67 424.848 318.614 429.858 311.842 433.735C309.421 435.11 306.846 436.404 305.071 438.567C303.296 440.73 302.579 444.092 304.248 446.349C305.917 448.606 309.291 448.853 311.901 447.889C314.511 446.925 316.686 445.056 319.096 443.657C323.61 441.024 329.888 440.295 333.685 443.939C334.869 445.213 335.742 446.745 336.233 448.414C336.725 450.083 336.822 451.843 336.518 453.556C335.893 456.968 334.585 460.218 332.674 463.113C326.586 473.579 317.832 482.243 307.305 488.224C296.783 493.984 286.602 496.794 274.811 494.607" fill="#F5F5F5"/>
<path d="M278.008 480.418C279.567 468.319 281.82 456.32 284.756 444.48L287.013 435.157C287.754 432.089 288.495 429.056 289.365 426.141C291.122 420.545 293.187 415.051 295.548 409.682C297.77 404.533 300.062 399.713 302.237 395.234C304.412 390.755 306.54 386.617 308.633 382.937C311.899 377.101 315.626 371.535 319.777 366.291C321.247 364.434 322.434 363.035 323.245 362.094C323.633 361.647 323.951 361.295 324.174 361.024C324.397 360.754 324.503 360.672 324.515 360.683C324.43 360.819 324.335 360.949 324.233 361.071L323.339 362.176C322.563 363.14 321.411 364.528 319.977 366.444C315.916 371.739 312.258 377.331 309.032 383.173C306.975 386.864 304.882 391.002 302.719 395.481C300.556 399.96 298.299 404.78 296.101 409.929C293.76 415.298 291.719 420.792 289.988 426.388C289.082 429.291 288.354 432.265 287.636 435.369L285.379 444.703C282.45 456.519 280.185 468.49 278.596 480.559" fill="#E0E0E0"/>
<path d="M289.564 426.094C289.31 425.636 289.108 425.151 288.965 424.648C288.612 423.719 288.154 422.297 287.613 420.639C286.531 417.23 285.191 412.469 283.734 407.225C282.276 401.982 280.877 397.245 279.737 393.871C279.172 392.178 278.702 390.802 278.373 389.874C278.175 389.391 278.022 388.891 277.914 388.381C278.198 388.819 278.431 389.288 278.608 389.78C279.019 390.685 279.548 392.037 280.171 393.706C281.429 397.068 282.899 401.782 284.368 407.049C285.838 412.316 287.072 416.924 288.06 420.498C288.518 422.12 288.894 423.484 289.235 424.577C289.389 425.072 289.499 425.58 289.564 426.094Z" fill="#E0E0E0"/>
<path d="M333.238 410.035C332.67 410.272 332.079 410.449 331.474 410.564C330.299 410.858 328.688 411.281 326.666 411.869C322.611 413.045 317.073 414.785 311.043 417.018C305.012 419.252 299.639 421.521 295.76 423.261C293.832 424.119 292.292 424.859 291.222 425.365C290.685 425.658 290.122 425.902 289.541 426.094C290.027 425.719 290.551 425.396 291.105 425.13C292.139 424.554 293.656 423.754 295.56 422.779C299.357 420.921 304.718 418.582 310.761 416.336C315.918 414.407 321.172 412.747 326.502 411.364C328.547 410.823 330.217 410.47 331.38 410.247C331.992 410.119 332.614 410.048 333.238 410.035Z" fill="#E0E0E0"/>
<path d="M278.42 479.513C278.269 479.359 278.135 479.189 278.02 479.007L276.974 477.514C276.069 476.198 274.811 474.281 273.294 471.883C270.238 467.087 266.241 460.327 261.926 452.803C257.612 445.28 253.697 438.496 250.723 433.653L247.196 427.904L246.256 426.341C246.131 426.167 246.032 425.977 245.962 425.776C245.962 425.776 246.114 425.929 246.361 426.27C246.608 426.611 246.996 427.164 247.408 427.775C248.313 429.08 249.571 430.996 251.099 433.406C254.144 438.202 258.153 444.95 262.467 452.474C266.781 459.998 270.696 466.781 273.659 471.636L277.185 477.373C277.562 477.996 277.879 478.549 278.126 478.937C278.252 479.113 278.351 479.307 278.42 479.513Z" fill="#E0E0E0"/>
<path d="M335.06 450.064C334.895 450.209 334.709 450.328 334.508 450.417L332.874 451.287L326.808 454.449C321.682 457.13 314.652 460.903 306.893 465.03C299.134 469.156 292.069 472.93 286.908 475.492C284.322 476.774 282.205 477.844 280.748 478.467L278.984 479.243C278.791 479.345 278.586 479.424 278.373 479.478C278.541 479.337 278.727 479.218 278.926 479.125L280.571 478.255L286.637 475.081C291.751 472.412 298.781 468.639 306.54 464.501C314.299 460.362 321.376 456.612 326.525 454.049C329.112 452.768 331.228 451.698 332.686 451.075L334.378 450.299C334.592 450.186 334.822 450.107 335.06 450.064Z" fill="#E0E0E0"/>
<path d="M127.802 242.254C127.802 242.254 113.836 244.193 121.678 274.782C129.519 305.371 136.173 321.148 136.173 321.148C136.173 321.148 137.219 328.072 131.635 327.861C126.051 327.649 114.659 323.158 110.792 329.142C106.794 335.396 110.298 342.92 119.021 350.808C127.744 358.697 146.342 376.671 148.011 378.305C149.68 379.94 150.903 383.302 147.07 383.76C143.238 384.219 116.058 381.033 115.329 394.023C114.6 407.014 142.615 424.977 145.636 426.999C148.657 429.021 149.163 430.596 148.458 432.359C147.752 434.123 138.747 432.183 130.977 431.583C123.206 430.984 114.083 431.678 114.283 439.201C114.483 446.725 129.201 465.77 172.111 479.924L192.437 485.179L207.449 470.39C237.662 436.78 240.965 412.95 237.403 406.32C233.841 399.69 225.647 403.628 219.134 408.001C212.622 412.374 205.803 418.581 204.345 417.406C202.888 416.23 202.512 414.608 204.134 411.351C205.756 408.095 221.145 378.588 214.044 367.678C206.944 356.769 184.936 373.015 181.41 374.508C177.883 376.001 177.248 372.451 177.883 370.241C178.518 368.031 185.689 343.202 189.38 331.975C193.071 320.748 192.366 312.496 185.783 309.063C179.435 305.759 171.805 315.352 167.056 318.315C162.306 321.277 159.79 314.788 159.79 314.788C159.79 314.788 157.721 297.801 149.328 267.353C140.934 236.905 127.544 242.36 127.544 242.36" fill="#EBEBEB"/>
<path d="M192.425 490.234C186.347 467.898 176.202 427.928 167.326 393.612C158.45 359.296 150.386 328.355 144.414 305.948C141.428 294.756 139.006 285.704 137.36 279.415C136.537 276.299 135.891 273.866 135.444 272.196L134.95 270.316C134.844 269.892 134.809 269.669 134.809 269.669C134.809 269.669 134.891 269.869 135.021 270.292C135.15 270.715 135.326 271.362 135.561 272.161C136.043 273.831 136.737 276.241 137.607 279.344C139.37 285.586 141.863 294.627 144.896 305.819C150.974 328.155 159.12 359.202 167.996 393.447C176.872 427.693 186.935 467.698 192.907 490.105" fill="#E0E0E0"/>
<path d="M126.474 336.125C126.944 336.319 127.393 336.559 127.815 336.843C128.649 337.336 129.848 338.089 131.341 339.029C134.269 340.922 138.254 343.638 142.592 346.706L153.666 354.606L157.04 356.957C157.465 357.222 157.86 357.533 158.215 357.886C157.741 357.694 157.288 357.454 156.864 357.169C156.029 356.675 154.83 355.923 153.337 354.97C150.433 353.054 146.483 350.268 142.145 347.211L131.012 339.394L127.626 337.042C127.211 336.779 126.825 336.471 126.474 336.125Z" fill="#E0E0E0"/>
<path d="M159.92 356.91C159.767 356.816 164.998 348.363 171.593 338.03C178.189 327.696 183.679 319.397 183.831 319.491C183.984 319.585 178.753 328.049 172.146 338.383C165.539 348.716 160.073 356.981 159.92 356.91Z" fill="#E0E0E0"/>
<path d="M171.182 410.141C171.508 409.735 171.883 409.371 172.299 409.059L175.461 406.285C178.13 403.934 181.81 400.689 185.736 396.951C189.662 393.212 193.119 389.721 195.587 387.17C196.763 385.994 197.727 384.948 198.515 384.148C198.871 383.754 199.264 383.396 199.69 383.079C199.43 383.528 199.114 383.943 198.75 384.313C198.115 385.077 197.163 386.159 195.964 387.475C193.613 390.12 190.18 393.682 186.23 397.421C182.28 401.159 178.565 404.38 175.814 406.638C174.427 407.813 173.298 408.66 172.499 409.259C172.094 409.601 171.652 409.896 171.182 410.141Z" fill="#E0E0E0"/>
<path d="M136.796 397.997C137.27 398.054 137.736 398.168 138.183 398.338L141.91 399.514C145.037 400.513 149.351 401.935 154.101 403.534C158.85 405.133 163.141 406.638 166.233 407.755L169.889 409.095C170.344 409.237 170.782 409.43 171.194 409.671C170.719 409.623 170.253 409.512 169.807 409.342L166.08 408.166C162.953 407.167 158.638 405.744 153.889 404.134C149.14 402.523 144.849 401.03 141.757 399.925L138.101 398.573C137.642 398.44 137.203 398.247 136.796 397.997Z" fill="#E0E0E0"/>
<path d="M140.769 446.255C141.374 446.345 141.969 446.495 142.544 446.702L147.317 448.159C151.338 449.417 156.875 451.192 162.988 453.203C169.101 455.213 174.614 457.047 178.6 458.422L183.302 460.068C183.887 460.255 184.457 460.487 185.007 460.762C184.398 460.672 183.799 460.523 183.22 460.315L178.447 458.857C174.426 457.599 168.889 455.824 162.776 453.814C156.663 451.804 151.15 449.958 147.176 448.594L142.474 446.937C141.886 446.761 141.316 446.533 140.769 446.255Z" fill="#E0E0E0"/>
<path d="M184.043 460.116C184.457 459.607 184.918 459.139 185.419 458.717L189.31 455.061C192.59 451.969 197.104 447.678 201.959 442.799C206.814 437.92 211.105 433.394 214.185 430.103L217.83 426.2C218.259 425.701 218.727 425.237 219.229 424.812C218.886 425.365 218.493 425.885 218.053 426.364C217.254 427.34 216.055 428.715 214.526 430.408C211.529 433.794 207.296 438.379 202.418 443.258C197.539 448.136 193.013 452.392 189.627 455.401C187.934 456.895 186.559 458.105 185.583 458.928C185.104 459.366 184.589 459.763 184.043 460.116Z" fill="#E0E0E0"/>
<path d="M67.1418 59.8366L55.668 56.3098C55.668 56.3098 52.6585 65.9497 42.5954 62.9989C40.6472 62.4624 38.9139 61.3336 37.6355 59.7688C36.357 58.2039 35.5966 56.2803 35.4595 54.2642C35.3089 52.5641 35.5663 50.8526 36.2104 49.272C36.8545 47.6915 37.8666 46.2875 39.1626 45.1769C42.1134 42.5671 47.286 40.98 54.5864 44.7537L62.6628 18.8906L51.3183 15.3638L46.6159 30.5172C46.6159 30.5172 29.4052 29.659 23.9387 47.1872C18.7073 63.9629 32.5323 72.5565 38.9745 74.5668C43.865 76.095 61.0405 80.1391 67.1418 59.8366Z" fill="#F5F5F5"/>
<path d="M52.8548 9.98088L64.3689 13.5737L67.7236 2.82277L56.2095 -0.770079L52.8548 9.98088Z" fill="#F5F5F5"/>
<path d="M98.8005 30.6351L103.397 29.4595C103.257 28.9374 103.223 28.3925 103.297 27.8571C103.372 27.3217 103.553 26.8068 103.831 26.3429C104.108 25.879 104.476 25.4756 104.912 25.1567C105.349 24.8379 105.845 24.61 106.371 24.4867C107.137 24.2555 107.956 24.2682 108.714 24.5231C109.473 24.7779 110.133 25.2623 110.604 25.9092C111.003 26.4462 111.27 27.0702 111.382 27.7302C111.495 28.3901 111.449 29.0673 111.25 29.7063C110.815 31.1993 109.416 32.8217 106.172 33.092L108.911 43.4491L113.448 42.2735L111.85 36.2074C113.57 35.1695 114.902 33.5943 115.639 31.7248C116.377 29.8553 116.478 27.7952 115.929 25.8621C114.166 19.1377 107.7 19.173 105.149 19.8431C103.174 20.3016 96.5787 22.547 98.8005 30.6351Z" fill="#EBEBEB"/>
<path d="M115.049 43.7837L110.42 45.0247L111.578 49.3465L116.208 48.1055L115.049 43.7837Z" fill="#EBEBEB"/>
<path d="M478.294 149.617L482.762 151.228C482.949 150.722 483.236 150.259 483.605 149.865C483.974 149.472 484.418 149.157 484.911 148.938C485.404 148.718 485.936 148.6 486.475 148.59C487.015 148.579 487.551 148.677 488.052 148.877C488.804 149.119 489.464 149.588 489.939 150.219C490.415 150.85 490.684 151.613 490.709 152.403C490.736 153.078 490.604 153.749 490.322 154.362C490.04 154.975 489.616 155.513 489.086 155.93C487.911 156.906 485.806 157.435 482.985 155.813L479.329 165.888L483.749 167.486L485.889 161.608C487.895 161.733 489.887 161.195 491.558 160.078C493.23 158.961 494.488 157.326 495.141 155.425C497.492 148.888 492.19 145.256 489.686 144.351C487.77 143.598 481.069 141.706 478.294 149.617Z" fill="#EBEBEB"/>
<path d="M483.088 169.528L478.601 167.903L477.084 172.092L481.571 173.718L483.088 169.528Z" fill="#EBEBEB"/>
<path d="M4.20028 200.779L13.6051 197.135C13.6051 197.135 10.5485 189.199 18.7424 185.872C20.3106 185.209 22.046 185.048 23.7094 185.412C25.3728 185.777 26.8822 186.648 28.0296 187.906C29.0058 188.952 29.7211 190.214 30.1174 191.589C30.5138 192.964 30.5798 194.413 30.3103 195.818C29.7225 199.086 27.1362 202.872 20.3295 204.176L28.5586 225.49L37.9634 221.893L33.1435 209.408C33.1435 209.408 44.8994 200.967 39.3859 186.507C34.0369 172.682 20.353 174.258 15.0981 176.291C11.0423 177.855 -2.40657 184.168 4.20028 200.779Z" fill="#F5F5F5"/>
<path d="M39.7449 226.231L30.2559 229.887L33.6708 238.75L43.1598 235.095L39.7449 226.231Z" fill="#F5F5F5"/>
<path d="M481.974 236.647L475.273 239.221C475.273 239.221 477.436 244.852 471.629 247.203C470.517 247.668 469.289 247.78 468.111 247.523C466.934 247.267 465.864 246.654 465.046 245.769C464.354 245.028 463.848 244.133 463.568 243.158C463.288 242.184 463.242 241.157 463.435 240.162C463.858 237.81 465.692 235.177 470.489 234.284L464.728 219.13L458.098 221.681L461.507 230.533C459.094 232.379 457.354 234.967 456.556 237.898C455.757 240.829 455.944 243.942 457.087 246.757C460.86 256.549 470.524 255.444 474.286 253.998C477.131 252.881 486.653 248.414 481.974 236.647Z" fill="#F5F5F5"/>
<path d="M456.786 218.61L463.51 216.019L461.093 209.744L454.368 212.335L456.786 218.61Z" fill="#F5F5F5"/>
<path d="M500.901 496.606C500.901 496.782 384.694 496.912 241.377 496.912C98.0598 496.912 -18.1714 496.782 -18.1714 496.606C-18.1714 496.43 98.0128 496.3 241.377 496.3C384.741 496.3 500.901 496.441 500.901 496.606Z" fill="#263238"/>
<path d="M56.3731 466.076C57.5487 461.749 54.645 457.412 51.4709 454.32C48.2968 451.228 44.4996 448.383 42.842 444.233C40.1616 437.509 43.759 428.809 39.1976 423.202C36.5055 419.91 31.6856 418.805 29.2991 415.278C28.1957 413.334 27.466 411.201 27.1478 408.989C24.6111 397.82 19.1173 387.539 11.242 379.223C10.7111 389.171 12.8673 399.079 17.4844 407.907C19.3301 411.434 21.6107 414.867 22.1868 418.805C23.186 425.188 19.6122 431.737 21.1875 438.038C22.9862 445.209 31.039 450.017 31.4152 457.4C31.7444 463.642 26.3014 469.156 26.7128 475.363C27.0425 478.021 28.0061 480.561 29.5225 482.769C34.3424 490.798 41.443 496.324 52.188 496.147L65.3547 496.606L56.3731 466.076Z" fill="#EBAE17"/>
<g opacity="0.3">
<path d="M56.3731 466.076C57.5487 461.749 54.645 457.412 51.4709 454.32C48.2968 451.228 44.4996 448.383 42.842 444.233C40.1616 437.509 43.759 428.809 39.1976 423.202C36.5055 419.91 31.6856 418.805 29.2991 415.278C28.1957 413.334 27.466 411.201 27.1478 408.989C24.6111 397.82 19.1173 387.539 11.242 379.223C10.7111 389.171 12.8673 399.079 17.4844 407.907C19.3301 411.434 21.6107 414.867 22.1868 418.805C23.186 425.188 19.6122 431.737 21.1875 438.038C22.9862 445.209 31.039 450.017 31.4152 457.4C31.7444 463.642 26.3014 469.156 26.7128 475.363C27.0425 478.021 28.0061 480.561 29.5225 482.769C34.3424 490.798 41.443 496.324 52.188 496.147L65.3547 496.606L56.3731 466.076Z" fill="black"/>
</g>
<path d="M68.0118 496.876C69.2177 497.062 70.4467 497.039 71.6444 496.806C73.0986 496.585 74.5278 496.222 75.9118 495.724C77.8231 495.06 79.6108 494.082 81.202 492.832C82.1594 492.062 82.9073 491.064 83.3769 489.929C83.7701 488.656 83.976 487.334 83.9882 486.002C84.0147 484.579 84.1206 483.158 84.3056 481.746C84.5533 480.244 85.0967 478.805 85.9044 477.514C87.4562 474.787 90.0425 472.201 90.8654 468.497C91.6883 464.794 91.124 460.915 90.5127 456.965C89.9014 453.015 89.3371 448.736 90.8184 444.598C92.2996 440.459 95.1211 436.756 96.567 432.124C98.013 427.493 97.3312 422.391 97.6368 417.418C97.7271 414.892 98.3101 412.408 99.3532 410.106C100.411 407.754 101.892 405.58 103.045 403.134C105.396 398.173 105.795 392.554 106.43 387.04C106.748 384.266 107.053 381.456 107.371 378.635C107.571 375.782 108.063 372.958 108.84 370.206C109.732 367.432 110.784 364.711 111.991 362.059C112.612 360.687 113.123 359.268 113.519 357.815C113.741 356.311 113.882 354.796 113.942 353.277C114.083 350.236 113.965 347.188 113.59 344.166C113.237 341.133 112.684 338.124 112.355 335.079C112.355 334.891 112.355 334.715 112.355 334.55L112.285 333.95L111.756 334.209C108.976 335.635 106.563 337.683 104.702 340.193C102.878 342.651 101.409 345.354 100.341 348.222C98.1423 353.877 97.3547 359.802 96.2496 365.456C95.1446 371.111 93.7339 376.672 90.8419 381.374C89.3959 383.725 87.6443 385.865 86.1395 388.145C84.5055 390.371 83.389 392.934 82.8714 395.646C82.0837 401.218 85.152 406.109 84.5172 411.046C84.2308 413.465 83.429 415.794 82.166 417.876C80.9904 419.981 79.5679 421.932 78.2278 423.884C76.8694 425.798 75.6889 427.832 74.701 429.961C73.7711 432.045 73.2217 434.279 73.0786 436.556C72.7612 441 73.3843 445.209 73.0786 449.182C72.7116 452.97 71.6052 456.648 69.8222 460.01C68.2352 463.243 66.46 466.17 64.9788 469.015C64.2382 470.425 63.5446 471.813 62.9803 473.212C62.4463 474.555 62.0523 475.949 61.8047 477.373C61.4112 479.86 61.3795 482.39 61.7106 484.885C62.056 488.365 63.3581 491.681 65.4725 494.466C65.7958 494.887 66.1536 495.281 66.5423 495.642C66.8019 495.914 67.0896 496.159 67.4005 496.371C67.8943 496.735 68.1529 496.9 68.1529 496.9C67.2131 496.157 66.3576 495.313 65.6018 494.384C63.5835 491.589 62.3643 488.297 62.0751 484.862C61.7757 482.398 61.8311 479.904 62.2396 477.455C62.4872 476.066 62.8812 474.706 63.4152 473.4C64.0109 471.985 64.682 470.604 65.4255 469.262C66.9185 466.44 68.7054 463.525 70.3277 460.268C72.164 456.854 73.3067 453.11 73.69 449.253C74.0426 445.197 73.4313 440.965 73.7605 436.639C73.9119 434.434 74.4491 432.274 75.3475 430.255C76.3416 428.17 77.522 426.179 78.8743 424.307C80.2145 422.355 81.637 420.404 82.8596 418.252C84.2014 416.091 85.0597 413.665 85.3754 411.14C86.0102 405.885 82.9654 400.971 83.7531 395.787C84.2683 393.193 85.348 390.745 86.9154 388.616C88.4084 386.37 90.1718 384.231 91.6178 381.821C94.6156 376.989 96.0615 371.323 97.1548 365.644C98.2482 359.966 99.0593 354.088 101.222 348.54C102.263 345.751 103.691 343.123 105.466 340.734C107.256 338.325 109.577 336.362 112.249 334.997L111.65 334.656C111.65 334.832 111.65 335.008 111.709 335.197C112.038 338.277 112.59 341.286 112.884 344.296C113.256 347.27 113.37 350.271 113.225 353.265C113.166 354.737 113.032 356.204 112.826 357.662C112.446 359.068 111.95 360.441 111.344 361.765C110.131 364.446 109.071 367.193 108.17 369.994C107.387 372.789 106.89 375.657 106.689 378.553C106.383 381.386 106.066 384.195 105.76 386.97C105.125 392.507 104.714 398.032 102.469 402.817C101.293 405.168 99.8822 407.413 98.7889 409.812C97.7129 412.2 97.1139 414.776 97.0255 417.394C96.7316 422.473 97.39 427.446 96.0145 431.936C94.6391 436.427 91.7824 440.166 90.3364 444.409C88.8904 448.653 89.4194 453.144 90.0542 457.082C90.6891 461.021 91.3239 464.9 90.4775 468.392C89.631 471.883 87.2093 474.493 85.634 477.291C84.8035 478.638 84.2481 480.136 83.9999 481.699C83.8223 483.127 83.7281 484.564 83.7178 486.002C83.7197 487.3 83.5295 488.592 83.1535 489.834C82.718 490.911 82.0186 491.861 81.1197 492.597C79.5712 493.846 77.8275 494.831 75.9589 495.513C74.5931 496.039 73.1797 496.433 71.7385 496.688C70.8576 496.848 69.965 496.935 69.0699 496.947C68.3292 496.876 68.0118 496.876 68.0118 496.876Z" fill="#263238"/>
<path d="M109.604 341.815C109.541 341.941 109.497 342.076 109.474 342.215L109.192 343.391C108.934 344.437 108.616 346.001 108.122 347.952C107.629 349.904 106.418 352.114 105.395 354.829C104.197 357.886 103.153 361.002 102.268 364.163C101.257 367.69 100.375 371.57 99.4347 375.755C98.6355 380.213 97.219 384.537 95.2261 388.604C94.1445 390.744 92.8749 392.907 91.9697 395.282C91.0204 397.707 90.3844 400.243 90.077 402.829C89.4083 408.185 88.4587 413.502 87.232 418.758C84.5987 429.538 82.0829 439.813 79.7905 449.171C77.4981 458.529 75.335 466.899 73.5481 473.976C71.7612 481.053 70.4092 486.696 69.4217 490.728C68.9633 492.656 68.5988 494.173 68.3402 495.289C68.2344 495.771 68.1403 496.159 68.0698 496.465C68.0568 496.602 68.0568 496.74 68.0698 496.877C68.1381 496.755 68.1895 496.624 68.2226 496.489C68.3049 496.171 68.4225 495.795 68.5636 495.313C68.8575 494.22 69.2689 492.703 69.7979 490.787C70.856 486.79 72.349 481.112 74.1947 474.117C76.0404 467.122 78.1917 458.658 80.6017 449.359C83.0116 440.06 85.4569 429.715 88.1137 418.923C89.3325 413.653 90.2587 408.319 90.8881 402.946C91.1885 400.422 91.8046 397.946 92.7221 395.575C93.6508 393.224 94.8381 391.12 95.9197 388.957C98.2709 384.666 99.1996 380.058 100.128 375.908C101.057 371.758 101.88 367.831 102.844 364.328C103.808 360.825 104.819 357.698 105.83 354.994C106.841 352.29 107.958 350.056 108.44 348.034C108.922 346.012 109.145 344.508 109.357 343.426C109.435 342.94 109.506 342.548 109.568 342.25C109.604 341.956 109.627 341.815 109.604 341.815Z" fill="#263238"/>
<path d="M70.3391 496.935C78.9328 491.821 81.4015 476.304 77.8159 466.969C74.2304 457.635 67.9527 449.1 66.9887 439.143C66.2363 431.49 68.7521 423.637 66.9887 416.16C64.5787 406.062 54.7272 398.244 54.8448 387.863C54.9036 382.044 58.2188 376.566 57.9484 370.747C57.631 363.623 52.1527 357.956 48.767 351.679C43.5708 342.051 43.2299 330.683 41.4548 319.938C39.6796 309.193 35.5768 297.601 26.0074 292.299C24.5967 301.457 22.1867 307.735 22.9391 320.137C23.2213 324.593 28.3939 333.069 29.0992 342.885C29.5225 348.763 29.8046 354.571 30.169 360.402C30.5335 366.233 30.8862 371.875 32.9199 377.189C34.4835 381.268 36.9875 384.972 38.1513 389.18C40.3262 397.092 37.4577 405.639 39.2211 413.68C40.7141 420.475 45.4165 426.317 46.3805 433.206C47.7207 442.881 41.4665 452.945 44.6641 462.173C46.2629 466.758 50.0249 470.402 51.0946 475.163C51.9293 478.831 51.0241 482.722 51.7765 486.402C52.9521 492.35 64.3083 496.982 70.3627 496.594" fill="#EBAE17"/>
<path d="M28.359 301.34C28.3429 301.512 28.3429 301.685 28.359 301.857C28.359 302.245 28.4765 302.739 28.5471 303.362C28.7469 304.69 28.9703 306.63 29.417 309.146C29.8637 311.661 31.2039 314.506 32.2384 317.939C33.2729 321.372 34.425 325.298 35.389 329.695C36.353 334.092 37.1994 338.994 38.0576 344.249C38.9158 349.504 39.8563 355.229 42.4661 360.707C43.6417 363.446 45.0289 366.197 45.9929 369.136C46.9806 372.144 47.5888 375.264 47.8033 378.423C48.2839 385.126 49.1277 391.797 50.3308 398.409C52.9642 411.975 55.4682 424.895 57.7489 436.662C60.0295 448.43 62.3219 458.928 64.1559 467.816C65.9898 476.703 67.4945 483.804 68.5408 488.812L69.7164 494.513C69.8575 495.125 69.9633 495.607 70.0573 495.983C70.0891 496.155 70.1364 496.325 70.1984 496.489C70.2192 496.317 70.2192 496.143 70.1984 495.971C70.1279 495.583 70.0456 495.101 69.9398 494.478C69.6812 493.115 69.3167 491.187 68.8582 488.741C67.8707 483.722 66.507 476.55 64.7319 467.698C62.9567 458.846 60.8524 448.23 58.513 436.51C56.1736 424.789 53.8106 411.822 51.1655 398.267C49.9616 391.656 49.1139 384.985 48.6262 378.282C48.4025 375.058 47.7745 371.875 46.757 368.807C45.7108 365.821 44.3353 363.058 43.1244 360.331C40.5381 354.935 39.5977 349.304 38.7042 344.072C37.8107 338.841 36.9526 333.927 35.9298 329.507C34.907 325.087 33.7902 321.137 32.6381 317.751C31.486 314.365 30.2046 311.497 29.6874 309.04C29.1701 306.583 28.9232 304.608 28.6764 303.303C28.5588 302.692 28.4648 302.198 28.3942 301.81C28.3918 301.653 28.38 301.496 28.359 301.34Z" fill="#263238"/>
<path d="M442.944 55.7576H438.242C438.245 56.2909 438.141 56.8195 437.937 57.312C437.732 57.8045 437.43 58.2508 437.05 58.6247C436.67 58.9985 436.218 59.2922 435.722 59.4883C435.226 59.6844 434.696 59.7789 434.163 59.7663C433.375 59.7946 432.599 59.5764 431.941 59.1423C431.284 58.7082 430.778 58.0798 430.495 57.3446C430.247 56.7324 430.148 56.0703 430.205 55.4124C430.262 54.7545 430.474 54.1194 430.824 53.5592C431.623 52.2425 433.363 51.0552 436.514 51.6077V41.0273H431.894V47.211C429.998 47.7691 428.337 48.9339 427.167 50.5266C425.997 52.1193 425.382 54.0519 425.416 56.0279C425.416 62.8699 431.553 64.457 434.186 64.457C436.196 64.504 443.038 64.022 442.944 55.7576Z" fill="#EBAE17"/>
<path d="M431.858 38.8875H436.549V34.5025H431.858V38.8875Z" fill="#EBAE17"/>
<path d="M468.584 49.5033C468.6 49.3038 468.6 49.1033 468.584 48.9038C468.584 48.4805 468.584 47.9045 468.584 47.1639C468.584 46.7877 468.584 46.3527 468.525 45.8825C468.467 45.4122 468.396 44.895 468.314 44.3542C468.231 43.8134 468.149 43.1786 468.055 42.5555L467.561 40.557C466.688 37.1153 465.259 33.8393 463.329 30.8584C460.528 26.4438 456.751 22.7303 452.29 20.0035C447.829 17.2767 442.802 15.6091 437.595 15.1289C436.032 14.9908 434.461 14.9594 432.893 15.0348C432.105 15.0348 431.294 15.0348 430.542 15.1877L428.12 15.5521C424.797 16.1697 421.582 17.2666 418.574 18.8085C415.435 20.4699 412.549 22.5721 410.004 25.0509C407.399 27.6911 405.222 30.7214 403.55 34.0325C401.752 37.4461 400.573 41.1518 400.07 44.9773C399.924 45.9465 399.841 46.9244 399.824 47.9045C399.745 48.886 399.725 49.8714 399.765 50.8552C400.02 57.1617 401.992 63.2789 405.466 68.548V68.1835C403.832 72.2629 402.222 76.2716 400.646 80.1746L400.364 80.8917L401.105 80.6801L413.919 77.1533L413.613 77.0828C417.929 80.3499 422.956 82.5494 428.285 83.5016C430.756 83.9623 433.276 84.1163 435.785 83.96C436.995 83.942 438.202 83.828 439.394 83.6191L441.146 83.3487C441.722 83.2429 442.321 83.0666 442.839 82.9373C450.735 80.9363 457.661 76.1896 462.377 69.5472C464.136 67.1002 465.548 64.422 466.574 61.5884C466.797 60.9654 467.009 60.4128 467.209 59.8015C467.409 59.1902 467.514 58.6259 467.644 58.0969C467.773 57.5679 467.914 57.0271 468.032 56.5334C468.149 56.0396 468.184 55.5576 468.255 55.0992C468.361 54.1939 468.525 53.3945 468.561 52.748C468.596 52.1014 468.561 51.4783 468.561 50.9846C468.561 50.4908 468.561 50.1852 468.561 49.9148C468.561 49.6444 468.561 49.5503 468.561 49.5503C468.543 49.6711 468.543 49.794 468.561 49.9148C468.561 50.1852 468.561 50.5378 468.478 50.9846C468.396 51.4313 468.408 52.0544 468.361 52.7362C468.314 53.418 468.137 54.2175 467.996 55.0874C466.875 61.5939 463.889 67.6347 459.4 72.4763C454.911 77.3179 449.113 80.7519 442.709 82.3612C442.157 82.4905 441.604 82.6551 441.04 82.7609L439.312 83.0196C438.146 83.2142 436.967 83.3203 435.785 83.337C433.322 83.4668 430.851 83.305 428.426 82.855C423.222 81.8973 418.314 79.7354 414.095 76.542L413.954 76.4245H413.778L400.952 79.9513L401.399 80.4568L406.231 68.4774L406.301 68.2893L406.195 68.113C403.88 64.6106 402.238 60.7077 401.352 56.6039C400.946 54.7 400.702 52.7651 400.623 50.82C400.584 49.8596 400.603 48.8977 400.682 47.9398C400.689 46.983 400.768 46.0281 400.917 45.0831C401.368 41.3473 402.479 37.7212 404.197 34.3734C405.831 31.1375 407.952 28.1717 410.486 25.5799C412.976 23.1464 415.803 21.0836 418.88 19.4551C421.82 17.9257 424.969 16.8364 428.226 16.2222L430.577 15.8578C431.365 15.7402 432.152 15.752 432.928 15.6932C434.461 15.6203 435.996 15.6478 437.525 15.7755C442.646 16.2237 447.597 17.833 452.003 20.4811C456.409 23.1292 460.154 26.7465 462.953 31.0582C464.893 33.9871 466.346 37.2108 467.256 40.6041L467.785 42.5791C467.891 43.2021 467.985 43.7546 468.079 44.3424C468.173 44.9302 468.243 45.4005 468.326 45.8707C468.408 46.341 468.384 46.7642 468.42 47.1404C468.42 47.8692 468.514 48.4453 468.549 48.8685C468.526 49.0806 468.538 49.295 468.584 49.5033Z" fill="#263238"/>
<path d="M118.01 188.141H185.9C185.9 188.141 185.9 131.137 245.139 130.126C275.904 129.585 291.857 149.746 298.346 165.182C305.87 183.11 303.589 203.542 293.503 220.176C281.993 239.162 257.188 258.242 211.434 250.178L210.999 401.442H278.137V311.767C278.137 311.767 372.291 287.432 372.291 183.627C372.291 84.348 292.009 62.9051 248.853 61.5179C224.848 60.7538 216.148 59.7193 186.453 63.9397C148.61 69.3474 117.21 113.291 118.01 188.141Z" fill="#EBAE17"/>
<path d="M278.949 432.97H210.811V496.605H278.949V432.97Z" fill="#EBAE17"/>
<path opacity="0.1" d="M278.949 432.97H210.811V496.605H278.949V432.97Z" fill="black"/>
<path opacity="0.1" d="M118.01 188.141H185.9C185.9 188.141 185.9 131.137 245.139 130.126C275.904 129.585 291.857 149.746 298.346 165.182C305.87 183.11 303.589 203.542 293.503 220.176C281.993 239.162 257.188 258.242 211.434 250.178L210.999 401.442H278.137V311.767C278.137 311.767 372.291 287.432 372.291 183.627C372.291 84.348 292.009 62.9051 248.853 61.5179C224.848 60.7538 216.148 59.7193 186.453 63.9397C148.61 69.3474 117.21 113.291 118.01 188.141Z" fill="black"/>
<path d="M89.8775 188.141H157.78C157.78 188.141 157.78 131.137 217.018 130.126C247.784 129.585 263.736 149.746 270.214 165.182C277.75 183.11 275.469 203.542 265.382 220.176C253.873 239.162 228.633 256.42 182.879 248.391V401.441H250.017V311.767C250.017 311.767 344.171 287.432 344.171 183.627C344.171 84.3479 255.131 61.2944 217.03 61.2944C187.887 61.3297 88.5961 68.3715 89.8775 188.141Z" fill="#EBAE17"/>
<path d="M250.828 432.97H182.691V496.605H250.828V432.97Z" fill="#EBAE17"/>
<path opacity="0.2" d="M224.683 130.432C224.347 130.461 224.009 130.461 223.672 130.432C223.002 130.432 222.038 130.208 220.78 130.196C217.224 130.022 213.659 130.171 210.129 130.643C204.896 131.306 199.746 132.515 194.764 134.252C191.828 135.279 188.968 136.512 186.206 137.944C183.221 139.435 180.41 141.253 177.824 143.363C175.256 145.492 172.955 147.924 170.97 150.605C169.089 153.084 167.373 155.683 165.833 158.387C163.262 162.993 161.223 167.875 159.755 172.941C158.76 176.36 158.075 179.862 157.71 183.404C157.568 184.65 157.533 185.638 157.498 186.296C157.499 186.635 157.467 186.974 157.404 187.307C157.374 186.971 157.374 186.632 157.404 186.296C157.404 185.626 157.404 184.638 157.51 183.38C157.78 179.8 158.406 176.256 159.379 172.8C160.793 167.676 162.805 162.735 165.374 158.082C166.917 155.348 168.642 152.72 170.535 150.217C172.537 147.492 174.866 145.024 177.471 142.869C180.088 140.73 182.935 138.889 185.959 137.379C188.738 135.922 191.618 134.664 194.576 133.617C199.603 131.887 204.802 130.705 210.082 130.091C213.635 129.654 217.223 129.571 220.792 129.844C221.762 129.906 222.728 130.024 223.684 130.196C224.022 130.251 224.356 130.33 224.683 130.432Z" fill="#263238"/>
<path opacity="0.2" d="M326.984 118.334C326.984 118.334 326.901 118.252 326.76 118.076C326.619 117.899 326.408 117.594 326.172 117.253L323.927 114.079C323.445 113.397 322.928 112.609 322.316 111.798L320.2 109.224L317.779 106.249C316.897 105.215 315.862 104.216 314.828 103.122C313.793 102.029 312.735 100.865 311.536 99.7483C310.337 98.6315 309.056 97.4911 307.739 96.3155C307.081 95.7277 306.434 95.1399 305.729 94.5169L303.542 92.7888C302.049 91.6132 300.568 90.4376 298.957 89.262C291.937 84.2394 284.491 79.8415 276.703 76.1188L270.508 73.3209L264.36 70.9697C262.349 70.135 260.304 69.5472 258.329 68.8889C256.354 68.2306 254.426 67.5605 252.451 67.102L246.831 65.6325C245.009 65.1505 243.199 64.8566 241.471 64.4569C239.743 64.0572 238.073 63.7045 236.439 63.5047L231.737 62.8228C228.763 62.3173 226.035 62.2115 223.66 61.9764C222.485 61.8823 221.309 61.753 220.334 61.706L217.536 61.6355L213.656 61.5061H212.645H212.304C212.417 61.4885 212.532 61.4885 212.645 61.5061H213.656H217.536H220.345C221.368 61.5061 222.485 61.6472 223.684 61.7295C226.035 61.9294 228.81 62.0116 231.784 62.4936L236.486 63.1285C238.12 63.3166 239.79 63.7398 241.53 64.0572C243.269 64.3746 245.056 64.7038 246.925 65.2328L252.568 66.6905C254.52 67.1372 256.448 67.8661 258.446 68.4657C260.445 69.0652 262.479 69.6413 264.489 70.5347L270.673 72.8859L276.903 75.6956C284.732 79.4268 292.208 83.8572 299.24 88.9328C300.862 90.1084 302.343 91.3663 303.836 92.5301L306.023 94.1172C306.728 94.705 307.375 95.2928 308.033 95.9276L311.818 99.4544C312.994 100.63 314.052 101.806 315.098 102.875C316.145 103.945 317.144 104.991 318.026 106.038L320.377 109.035L322.469 111.645C323.069 112.468 323.574 113.268 324.045 113.997C324.962 115.372 325.679 116.454 326.184 117.229L326.737 118.088C326.829 118.159 326.912 118.242 326.984 118.334Z" fill="#263238"/>
<path opacity="0.2" d="M319.906 264.109C319.766 264.363 319.597 264.6 319.401 264.814L317.778 266.73C317.108 267.588 316.262 268.611 315.216 269.751C314.169 270.892 313.052 272.232 311.689 273.619C310.325 275.006 308.867 276.558 307.21 278.122C305.552 279.685 303.754 281.331 301.837 283.047C293.433 290.383 284.219 296.737 274.375 301.986C272.095 303.162 269.943 304.338 267.863 305.243C265.782 306.148 263.842 307.077 262.055 307.829C260.268 308.581 258.622 309.204 257.188 309.757C255.754 310.31 254.496 310.756 253.462 311.085L251.11 311.85C250.837 311.958 250.554 312.037 250.264 312.085C250.517 311.94 250.785 311.821 251.063 311.732L253.415 310.862C254.437 310.498 255.672 310.027 257.094 309.44C258.517 308.852 260.162 308.264 261.926 307.429C263.689 306.595 265.641 305.807 267.674 304.784C269.708 303.761 271.883 302.68 274.152 301.493C278.631 299.024 283.463 296.132 288.341 292.793C293.22 289.454 297.605 285.939 301.508 282.624C303.424 280.931 305.258 279.344 306.892 277.746C308.526 276.147 310.055 274.701 311.407 273.314C312.759 271.926 313.946 270.645 315.004 269.516C316.062 268.388 316.932 267.4 317.637 266.577L319.283 264.708C319.474 264.492 319.683 264.291 319.906 264.109Z" fill="#263238"/>
<path opacity="0.2" d="M248.83 396.105C248.654 396.105 248.512 377.225 248.512 353.936C248.512 330.647 248.654 311.756 248.83 311.756C249.006 311.756 249.136 330.636 249.136 353.936C249.136 377.236 248.994 396.105 248.83 396.105Z" fill="#263238"/>
<path opacity="0.2" d="M251.416 492.292C251.24 492.292 251.111 479.043 251.111 462.702C251.111 446.361 251.24 433.1 251.416 433.1C251.593 433.1 251.722 446.349 251.722 462.702C251.722 479.054 251.581 492.292 251.416 492.292Z" fill="#263238"/>
<path d="M318.249 179.125C317.074 181.476 321.459 183.404 323.986 184.168C326.565 184.801 329.233 184.984 331.874 184.709C335.401 184.521 339.01 184.192 342.055 182.452C344.722 180.8 346.853 178.411 348.192 175.575C349.512 172.747 350.555 169.798 351.307 166.769C351.307 166.769 323.528 168.58 318.249 179.125Z" fill="#EBAE17"/>
<g opacity="0.4">
<path d="M318.249 179.125C317.074 181.476 321.459 183.404 323.986 184.168C326.565 184.801 329.233 184.984 331.874 184.709C335.401 184.521 339.01 184.192 342.055 182.452C344.722 180.8 346.853 178.411 348.192 175.575C349.512 172.747 350.555 169.798 351.307 166.769C351.307 166.769 323.528 168.58 318.249 179.125Z" fill="black"/>
</g>
<path d="M396.709 171.601C401.288 174.849 406.777 176.569 412.391 176.515C415.083 176.665 417.736 175.829 419.856 174.164C420.761 173.329 421.443 172.271 422.372 171.471C423.007 170.931 423.747 170.519 424.347 169.943C424.663 169.671 424.907 169.324 425.057 168.934C425.207 168.545 425.258 168.124 425.205 167.71C424.973 166.689 424.401 165.777 423.583 165.123C420.397 163.313 416.588 163.383 412.92 163.466C409.249 163.625 405.623 164.334 402.163 165.57C399.318 166.534 396.344 167.921 394.898 170.507" fill="#EBAE17"/>
<g opacity="0.4">
<path d="M425.205 167.71C424.789 166.718 424.058 165.892 423.124 165.358C419.938 163.548 416.588 163.383 412.92 163.466C409.249 163.625 405.623 164.334 402.163 165.57C399.318 166.534 396.344 167.921 394.898 170.508L396.709 171.601C401.288 174.849 406.777 176.569 412.391 176.515C415.083 176.665 417.736 175.829 419.856 174.164C420.761 173.329 421.443 172.271 422.372 171.472C423.007 170.931 423.747 170.519 424.347 169.943C424.663 169.671 424.907 169.324 425.057 168.934C425.207 168.545 425.258 168.124 425.205 167.71Z" fill="black"/>
</g>
<path d="M342.466 213.793L401.07 214.569C401.189 214.569 401.307 214.54 401.413 214.486C401.52 214.433 401.612 214.355 401.683 214.259C401.754 214.163 401.801 214.051 401.821 213.934C401.841 213.816 401.834 213.695 401.799 213.581L394.922 192.138C394.922 192.138 395.933 181.417 397.332 168.533C399.459 148.959 402.293 124.354 402.328 124.424C398.319 113.185 374.666 111.281 374.666 111.281L347.71 112.88L346.769 111.293L339.01 114.902C337.318 115.689 335.691 116.609 334.143 117.653C329.018 121.074 316.674 128.938 314.417 137.697C309.209 157.976 318.026 180.606 318.026 180.606L323.692 176.174C325.119 175.074 326.62 174.073 328.183 173.176L339.539 203.612C338.863 204.038 338.291 204.61 337.864 205.285C337.437 205.96 337.166 206.722 337.07 207.515C336.976 209.984 338.246 212.947 342.466 213.793Z" fill="#EBAE17"/>
<g opacity="0.3">
<path d="M367.612 177.914C369.47 167.921 368.494 157.647 367.495 147.537C364.25 155.766 364.368 165.171 360.923 173.329C360.501 174.191 360.193 175.104 360.006 176.045C359.916 176.517 359.94 177.005 360.075 177.467C360.21 177.928 360.452 178.352 360.782 178.702C361.722 179.56 363.133 179.09 364.379 178.949C365.495 178.736 366.58 178.388 367.612 177.914Z" fill="black"/>
</g>
<g opacity="0.4">
<path d="M345.993 201.05C350.695 202.684 355.703 199.639 360.676 199.098C363.968 198.745 367.26 199.498 370.528 200.027C377.136 201.096 383.86 201.262 390.513 200.521C391.534 200.464 392.533 200.205 393.452 199.756C393.927 199.433 394.315 198.998 394.584 198.49C394.852 197.982 394.992 197.416 394.992 196.841C383.918 195.665 372.855 195.031 361.781 193.89C359.025 193.42 356.202 193.512 353.482 194.161C350.143 195.195 347.604 197.817 345.252 200.415" fill="black"/>
</g>
<path d="M423.512 163.854C418.727 153.073 401.857 123.26 401.857 123.26L388.796 139.636L391.841 171.789C391.841 171.789 398.742 164.089 418.033 163.936C419.435 163.992 420.807 164.361 422.048 165.016C423.289 165.671 424.367 166.595 425.205 167.721L423.512 163.854Z" fill="#EBAE17"/>
<path d="M345.088 158.152C344.156 155.866 343.417 153.507 342.878 151.098C342.148 148.752 341.613 146.35 341.279 143.915C342.197 146.205 342.932 148.563 343.477 150.969C344.208 153.316 344.746 155.718 345.088 158.152Z" fill="#263238"/>
<path d="M387.809 137.461C388.234 137.762 388.628 138.105 388.985 138.484C390.023 139.487 390.997 140.555 391.9 141.682C394.94 145.398 397.077 149.768 398.143 154.449C398.696 157.036 398.819 159.698 398.507 162.325C398.213 164.735 397.755 166.851 397.449 168.638C397.143 170.425 396.955 171.883 396.861 172.894C396.859 173.419 396.804 173.943 396.697 174.457C396.613 173.933 396.59 173.4 396.626 172.87C396.678 171.43 396.811 169.993 397.026 168.568C397.273 166.769 397.684 164.629 397.955 162.266C398.226 159.698 398.088 157.103 397.543 154.578C396.49 149.984 394.448 145.676 391.559 141.952C389.408 139.06 387.715 137.555 387.809 137.461Z" fill="#263238"/>
<path d="M375.841 211.207C375.433 211.389 375.002 211.515 374.56 211.583C374.058 211.716 373.547 211.814 373.032 211.877C372.432 211.959 371.75 212.089 370.986 212.124C369.195 212.288 367.393 212.288 365.602 212.124C363.411 211.899 361.246 211.466 359.136 210.831C357.037 210.156 355.006 209.286 353.07 208.233C351.5 207.357 350.009 206.346 348.615 205.211C348.003 204.741 347.509 204.247 347.063 203.836C346.677 203.489 346.312 203.12 345.969 202.731C345.643 202.428 345.361 202.08 345.135 201.696C345.217 201.614 346.475 203.025 348.885 204.87C350.293 205.942 351.783 206.901 353.34 207.739C355.255 208.745 357.253 209.583 359.312 210.243C361.386 210.867 363.51 211.308 365.661 211.56C367.417 211.749 369.186 211.804 370.951 211.724C373.972 211.56 375.818 211.113 375.841 211.207Z" fill="#263238"/>
<path d="M393.934 204.529C394.21 205.061 394.367 205.647 394.392 206.246C394.58 207.679 394.472 209.135 394.075 210.525C393.671 211.946 392.852 213.215 391.724 214.169C390.865 214.886 390.207 215.11 390.172 215.051C390.136 214.992 390.689 214.604 391.43 213.875C392.381 212.884 393.071 211.672 393.44 210.348C394.38 207.245 393.71 204.541 393.934 204.529Z" fill="#263238"/>
<path d="M390.748 208.667C391.003 209.877 390.901 211.134 390.454 212.286C390.008 213.438 389.236 214.436 388.232 215.157C388.103 215.027 389.196 213.864 389.878 212.065C390.56 210.266 390.572 208.679 390.748 208.667Z" fill="#263238"/>
<path d="M380.262 169.99C379.639 171.043 378.939 172.049 378.169 173C377.561 174.062 376.874 175.075 376.112 176.033C376.338 174.792 376.871 173.628 377.664 172.647C378.29 171.555 379.184 170.641 380.262 169.99Z" fill="#263238"/>
<path d="M340.033 141.518C339.137 140.992 338.27 140.419 337.435 139.801C333.254 137.055 328.509 135.283 323.551 134.617C322.513 134.541 321.481 134.404 320.459 134.205C321.501 134.062 322.557 134.062 323.598 134.205C328.691 134.64 333.569 136.457 337.705 139.46C338.573 140.035 339.356 140.727 340.033 141.518Z" fill="#263238"/>
<path d="M401.858 122.873C399.754 124.567 397.788 126.426 395.98 128.433C394.315 130.575 392.825 132.847 391.524 135.228C391.663 134.427 391.938 133.656 392.335 132.947C393.186 131.185 394.253 129.534 395.509 128.033C396.77 126.536 398.216 125.205 399.812 124.072C400.42 123.557 401.112 123.151 401.858 122.873Z" fill="#263238"/>
<path d="M377.664 113.186C377.771 113.355 377.858 113.537 377.922 113.727C378.152 114.259 378.337 114.809 378.475 115.372C378.971 117.467 378.971 119.649 378.475 121.744C377.743 124.872 376.069 127.699 373.678 129.844C370.661 132.4 366.817 133.771 362.863 133.7C358.906 133.714 355.05 132.448 351.871 130.091C349.338 128.157 347.283 125.667 345.864 122.814C344.908 120.903 344.235 118.864 343.865 116.76C343.757 116.193 343.687 115.619 343.654 115.043C343.621 114.841 343.621 114.634 343.654 114.432C343.654 114.432 343.783 115.255 344.112 116.713C344.569 118.758 345.293 120.734 346.264 122.591C347.698 125.358 349.734 127.768 352.224 129.644C355.287 131.913 358.993 133.148 362.804 133.171C366.615 133.241 370.324 131.939 373.255 129.503C375.565 127.437 377.202 124.726 377.958 121.721C378.481 119.692 378.553 117.573 378.169 115.513C377.946 113.962 377.593 113.209 377.664 113.186Z" fill="#263238"/>
<g opacity="0.3">
<path d="M381.778 172.071C381.778 171.483 381.684 170.79 381.167 170.496C381.003 170.413 380.822 170.37 380.638 170.37C380.454 170.37 380.273 170.413 380.109 170.496C379.78 170.674 379.489 170.913 379.251 171.201C377.869 172.639 376.8 174.349 376.112 176.221L381.872 175.716C381.837 174.528 381.813 173.282 381.778 172.071Z" fill="black"/>
</g>
<g opacity="0.3">
<path d="M400.905 159.951C400.326 156.655 398.882 153.571 396.72 151.016C399.212 159.151 398.378 163.748 396.979 169.32L397.285 168.544C398.895 165.288 401.34 163.243 400.905 159.951Z" fill="black"/>
</g>
<path d="M389.396 433.23L385.881 485.955L362.957 485.685L359.348 430.867L389.396 433.23Z" fill="#FFBE9D"/>
<path d="M386.528 479.019V480.548C386.528 480.548 412.391 490.94 412.638 495.83L361.276 495.548L362.075 478.467C369.728 482.052 377.734 482.499 386.528 479.019Z" fill="#EBAE17"/>
<path d="M367.283 483.945C366.796 484.092 366.379 484.413 366.11 484.845C365.842 485.278 365.741 485.794 365.825 486.296C365.951 486.798 366.266 487.231 366.705 487.505C367.143 487.779 367.671 487.872 368.177 487.766C368.7 487.609 369.146 487.264 369.428 486.797C369.711 486.33 369.809 485.774 369.705 485.238C369.519 484.73 369.142 484.315 368.655 484.08C368.168 483.846 367.608 483.81 367.095 483.98" fill="white"/>
<path d="M361.276 495.548L361.464 491.445L410.651 493.232C410.651 493.232 412.932 494.243 412.661 495.842L361.276 495.548Z" fill="#263238"/>
<path d="M386.716 480.688C386.716 480.935 385.446 481.041 384.212 481.864C382.977 482.687 382.307 483.71 382.084 483.616C381.86 483.522 382.237 482.064 383.753 481.123C385.27 480.183 386.774 480.418 386.716 480.688Z" fill="#263238"/>
<path d="M392.088 482.946C392.147 483.193 391.054 483.604 390.196 484.662C389.337 485.72 389.091 486.837 388.832 486.825C388.573 486.814 388.432 485.391 389.525 484.11C390.619 482.828 392.077 482.769 392.088 482.946Z" fill="#263238"/>
<path d="M395.109 489.411C394.874 489.411 394.533 488.236 395.192 486.837C395.85 485.438 397.014 484.932 397.12 485.132C397.225 485.332 396.497 486.073 395.944 487.213C395.392 488.353 395.368 489.388 395.109 489.411Z" fill="#263238"/>
<path d="M385.211 47.6226C386.54 44.3309 384.929 40.3457 382.072 38.2178C379.062 36.2359 375.39 35.522 371.856 36.2311C368.37 36.9621 364.995 38.1478 361.817 39.7579C360.339 38.2676 358.476 37.2174 356.437 36.7246C354.397 36.2317 352.26 36.3155 350.265 36.9667C348.27 37.6179 346.495 38.8108 345.139 40.4122C343.782 42.0136 342.898 43.9605 342.584 46.0355C341.313 45.7156 339.979 45.7478 338.725 46.1287C337.47 46.5096 336.344 47.2247 335.465 48.1975C334.587 49.1702 333.99 50.3638 333.738 51.6502C333.487 52.9365 333.59 54.2671 334.037 55.4991L349.932 61.0832L367.283 91.6487C369.848 93.8365 373.121 95.0166 376.491 94.9689C379.862 94.9211 383.1 93.6487 385.601 91.3891C388.103 89.1295 389.697 86.037 390.086 82.6886C390.474 79.3402 389.632 75.9647 387.715 73.1918C388.687 72.3272 389.513 71.3109 390.16 70.1823C391.547 69.3623 392.757 68.2749 393.72 66.9833C394.682 65.6917 395.379 64.2216 395.768 62.6585C397.308 55.8518 392.041 48.422 385.211 47.6226Z" fill="#263238"/>
<path d="M374.689 111.281C373.702 106.308 373.02 102.899 373.032 102.935C373.043 102.97 382.436 99.2902 381.755 86.2058C381.425 79.693 378.945 69.43 376.641 61.1068C374.572 53.6065 367.577 45.3421 360.182 47.7285L337.764 58.6616C335.518 59.3905 335.13 61.5065 335.659 63.7989V64.9745L344.371 101.018L348.05 117.124C348.835 120.431 350.829 123.325 353.64 125.235C356.451 127.145 359.875 127.934 363.239 127.446C365.076 127.187 366.841 126.556 368.425 125.591C370.009 124.626 371.379 123.348 372.452 121.834C373.524 120.32 374.276 118.603 374.66 116.789C375.045 114.974 375.055 113.1 374.689 111.281Z" fill="#FFBE9D"/>
<path d="M376.559 69.8062C376.653 70.2234 376.584 70.6608 376.365 71.0283C376.146 71.3958 375.795 71.6653 375.383 71.7812C375.175 71.8393 374.958 71.8546 374.744 71.8265C374.53 71.7983 374.324 71.7271 374.139 71.6173C373.953 71.5075 373.792 71.3612 373.664 71.1874C373.537 71.0135 373.445 70.8156 373.396 70.6056C373.302 70.19 373.372 69.7542 373.591 69.3886C373.81 69.0231 374.161 68.7558 374.572 68.6424C374.779 68.5825 374.996 68.5654 375.21 68.592C375.423 68.6187 375.629 68.6886 375.815 68.7975C376.001 68.9064 376.163 69.052 376.291 69.2254C376.419 69.3988 376.51 69.5965 376.559 69.8062Z" fill="#263238"/>
<path d="M375.536 67.3021C375.371 67.5607 373.949 66.9141 372.209 67.3021C370.469 67.69 369.364 68.8186 369.129 68.6423C368.894 68.4659 369.129 68.1368 369.611 67.6195C370.258 66.9361 371.099 66.4682 372.021 66.2793C372.93 66.0832 373.879 66.1863 374.725 66.5732C375.383 66.8436 375.606 67.1963 375.536 67.3021Z" fill="#263238"/>
<path d="M359.489 73.6623C359.583 74.0779 359.513 74.5138 359.294 74.8794C359.076 75.2449 358.724 75.5122 358.314 75.6256C358.111 75.6847 357.898 75.7029 357.688 75.6792C357.478 75.6556 357.274 75.5905 357.089 75.4877C356.905 75.3849 356.742 75.2465 356.611 75.0805C356.48 74.9145 356.384 74.7242 356.327 74.5205C356.232 74.1034 356.302 73.666 356.521 73.2985C356.739 72.931 357.091 72.6615 357.502 72.5455C357.706 72.4866 357.92 72.4689 358.13 72.4933C358.341 72.5177 358.545 72.5838 358.73 72.6878C358.915 72.7917 359.077 72.9314 359.207 73.0987C359.338 73.266 359.434 73.4576 359.489 73.6623Z" fill="#263238"/>
<path d="M358.631 71.4521C358.478 71.7108 357.044 71.0524 355.304 71.4521C353.564 71.8518 352.459 72.9569 352.224 72.7923C351.989 72.6277 352.224 72.2868 352.706 71.7578C353.356 71.0805 354.196 70.6171 355.116 70.4294C356.024 70.2362 356.971 70.335 357.82 70.7115C358.443 70.9937 358.713 71.3111 358.631 71.4521Z" fill="#263238"/>
<path d="M367.483 82.5027C368.345 82.0272 369.261 81.6562 370.21 81.3976C370.645 81.2565 371.057 81.0802 371.069 80.7628C371.007 80.2952 370.806 79.8569 370.492 79.5049L368.459 76.3778C365.614 71.9223 363.451 68.2309 363.627 68.1486C363.803 68.0664 366.26 71.5579 369.105 76.0134L371.092 79.164C371.482 79.6461 371.694 80.2483 371.692 80.8686C371.656 81.0377 371.585 81.197 371.481 81.3352C371.377 81.4733 371.245 81.587 371.092 81.668C370.862 81.7897 370.617 81.8807 370.363 81.9384C369.433 82.2568 368.464 82.4466 367.483 82.5027Z" fill="#263238"/>
<path d="M373.032 102.934C367.086 104.278 360.884 103.945 355.116 101.97C355.116 101.97 361.276 110.012 373.702 106.167L373.032 102.934Z" fill="#EB996E"/>
<path d="M358.925 68.9599C358.807 69.4654 357.009 69.4537 354.963 69.9592C352.918 70.4647 351.295 71.2288 350.966 70.8291C350.825 70.641 351.06 70.1473 351.683 69.6535C352.511 68.9561 353.495 68.4682 354.552 68.231C355.599 67.9826 356.69 67.9826 357.738 68.231C358.572 68.3839 359.007 68.7248 358.925 68.9599Z" fill="#263238"/>
<path d="M374.866 61.7533C374.584 62.2236 373.079 62.106 371.339 62.4469C369.599 62.7878 368.224 63.3756 367.812 63.0347C367.624 62.8584 367.812 62.4117 368.318 61.8591C369.094 61.2063 370.032 60.7757 371.033 60.613C372.018 60.4146 373.038 60.4878 373.984 60.8246C374.701 61.1538 374.983 61.5182 374.866 61.7533Z" fill="#263238"/>
<path d="M343.301 50.244C343.561 51.5175 344.099 52.7181 344.875 53.7605C345.652 54.8029 346.648 55.6615 347.794 56.2753C348.94 56.8892 350.206 57.2432 351.504 57.3121C352.802 57.3811 354.1 57.1635 355.304 56.6745C357.161 55.9222 359.089 54.5114 360.97 55.1933C362.851 55.8751 363.627 58.5555 365.426 59.5548C368.071 61.036 371.304 58.4732 374.255 58.7318C376.606 58.9317 378.381 60.7304 380.203 62.2586C382.025 63.7869 384.541 64.939 386.598 63.8339C386.127 61.8707 385.429 59.9691 384.518 58.1675C383.598 56.3539 382.077 54.916 380.215 54.1C379.18 53.6885 378.064 53.5475 377.076 53.0419C374.948 51.9604 373.996 49.5152 372.456 47.6695C371.445 46.5064 370.17 45.6011 368.739 45.0286C367.308 44.4562 365.761 44.2331 364.227 44.3778C361.688 44.6364 359.278 45.9178 356.715 45.812C354.822 45.7297 353.012 44.8833 351.119 44.9186C347.439 44.9186 344.677 48.2102 342.631 51.2786" fill="#263238"/>
<path d="M355.692 52.9363C353.999 52.807 350.543 52.4543 349.402 51.2552C348.244 49.9594 346.765 48.9907 345.115 48.4461C343.464 47.9014 341.7 47.7999 339.998 48.1516C338.309 48.6551 336.826 49.6876 335.768 51.0971C334.709 52.5066 334.132 54.2186 334.12 55.9811C332.063 56.483 330.179 57.5312 328.669 59.0148C327.158 60.4984 326.077 62.3625 325.538 64.4101C324.991 66.5536 324.972 68.7979 325.484 70.9502C325.996 73.1024 327.023 75.098 328.477 76.7656C329.183 77.6487 329.827 78.5796 330.405 79.5518C329.608 80.5406 328.907 81.6035 328.312 82.7259C325.62 88.6744 332.92 90.955 332.92 90.955C332.92 94.9521 336.624 94.9286 338.987 94.9168C341.35 94.905 342.654 101.218 344.5 100.971L342.631 81.4915C342.905 81.5979 343.195 81.6537 343.489 81.6561C347.945 81.7384 346.781 73.2976 345.347 71.0757C346.674 69.4232 347.795 67.6151 348.685 65.6915C349.492 62.7508 349.549 59.6546 348.85 56.6864C350.343 56.4983 356.421 52.9833 355.692 52.9363Z" fill="#263238"/>
<path d="M343.219 82.5259C343.067 81.9069 342.761 81.3365 342.329 80.8678C341.897 80.3991 341.354 80.0474 340.749 79.8455C340.145 79.6436 339.499 79.5981 338.872 79.7132C338.245 79.8283 337.658 80.1003 337.164 80.5038C335.989 81.5149 335.366 83.2077 336.071 86.0409C337.976 93.6117 345.182 90.1437 345.135 89.9321C345.088 89.7205 344.042 85.653 343.219 82.5259Z" fill="#FFBE9D"/>
<path d="M342.102 87.64C342.102 87.64 341.996 87.7694 341.796 87.9222C341.519 88.1353 341.169 88.2322 340.821 88.1926C339.951 88.0985 338.952 87.017 338.575 85.6415C338.396 84.9989 338.36 84.3247 338.47 83.6665C338.481 83.4109 338.555 83.1619 338.684 82.9408C338.813 82.7197 338.994 82.5331 339.21 82.3969C339.353 82.3199 339.518 82.2955 339.677 82.3277C339.836 82.3599 339.979 82.4468 340.08 82.5732C340.233 82.7496 340.221 82.9141 340.268 82.9259C340.315 82.9377 340.398 82.7496 340.268 82.4557C340.178 82.2814 340.034 82.1411 339.857 82.056C339.608 81.9553 339.33 81.9553 339.081 82.056C338.786 82.1962 338.531 82.4087 338.339 82.6738C338.148 82.9389 338.027 83.2481 337.988 83.5725C337.835 84.3128 337.863 85.079 338.07 85.8061C338.201 86.4888 338.531 87.1175 339.018 87.6132C339.506 88.1089 340.129 88.4495 340.809 88.5923C341.03 88.6013 341.251 88.5605 341.454 88.473C341.658 88.3855 341.839 88.2535 341.985 88.0868C342.137 87.8281 342.137 87.6518 342.102 87.64Z" fill="#EB996E"/>
<path d="M383.812 71.9575C383.812 71.9575 384.506 71.4285 385.47 70.2529C386.8 68.559 387.616 66.5189 387.821 64.3749C387.976 62.9113 387.832 61.4313 387.398 60.0252C386.895 58.4123 385.965 56.9658 384.705 55.8401C383.251 54.5701 381.49 53.7023 379.597 53.3229C377.704 52.9434 375.745 53.0655 373.913 53.677C373.561 53.7946 373.232 53.9709 372.902 54.112C372.573 54.253 372.279 54.4646 371.974 54.641L371.504 54.8996V54.3824C371.493 53.4717 371.155 52.5952 370.551 51.9136C369.933 51.2521 369.173 50.7379 368.329 50.4088C366.733 49.7435 364.964 49.6115 363.286 50.0327C360.041 50.7733 357.291 52.2545 354.692 52.5602C352.655 52.9143 350.559 52.495 348.814 51.3846C348.354 51.0678 347.956 50.6694 347.639 50.209C347.451 49.8916 347.357 49.7152 347.38 49.7035C347.806 50.284 348.327 50.7887 348.92 51.1965C350.637 52.1873 352.653 52.5254 354.598 52.1487C355.952 51.894 357.276 51.5001 358.548 50.9731C360.042 50.3759 361.574 49.8771 363.133 49.4801C364.002 49.2698 364.896 49.1789 365.79 49.2097C366.733 49.2596 367.66 49.4744 368.529 49.8446C369.428 50.2286 370.231 50.8067 370.88 51.5374C371.576 52.3333 371.967 53.3493 371.985 54.4059L371.515 54.1472L372.491 53.583C372.855 53.4419 373.196 53.2538 373.573 53.1245C375.503 52.4635 377.573 52.3252 379.574 52.7237C381.575 53.1222 383.435 54.0433 384.964 55.3934C386.286 56.5903 387.254 58.1275 387.762 59.8371C388.29 61.6491 388.361 63.5634 387.969 65.4095C387.577 67.2555 386.735 68.976 385.517 70.4175C385.129 70.8593 384.691 71.2539 384.212 71.5931C384.094 71.7303 383.96 71.8527 383.812 71.9575Z" fill="#455A64"/>
<path d="M382.284 45.3775C381.512 44.9857 380.689 44.7047 379.839 44.5428C378.867 44.4099 377.877 44.5024 376.947 44.8132C375.742 45.1818 374.695 45.9433 373.973 46.9763L373.679 47.3877L373.502 46.9175C372.889 45.4724 371.9 44.217 370.64 43.281C369.379 42.3449 367.892 41.7619 366.331 41.592C363.88 41.4998 361.464 42.2007 359.442 43.5905C357.72 44.7132 355.888 45.6585 353.976 46.412C352.657 46.9108 351.237 47.0803 349.838 46.9057C349.465 46.8369 349.099 46.7346 348.744 46.6001C348.509 46.4943 348.38 46.4355 348.392 46.412C348.403 46.3885 348.921 46.5648 349.873 46.6589C351.225 46.7433 352.579 46.5224 353.835 46.0123C355.693 45.2017 357.476 44.226 359.16 43.0968C360.2 42.4508 361.303 41.9112 362.452 41.4862C363.714 41.0258 365.064 40.8531 366.402 40.9807C368.069 41.1628 369.656 41.7935 370.993 42.8058C372.33 43.8181 373.368 45.1741 373.996 46.7294H373.538C374.346 45.6246 375.5 44.8218 376.818 44.4487C377.818 44.1586 378.873 44.1063 379.898 44.2959C380.546 44.4191 381.167 44.658 381.731 45.0013C381.933 45.0997 382.119 45.2264 382.284 45.3775Z" fill="#455A64"/>
<path d="M366.801 85.9822C366.527 85.7526 366.207 85.5837 365.863 85.4864C365.518 85.3892 365.157 85.3658 364.803 85.4179C364.389 85.5063 363.998 85.6807 363.656 85.9298C363.314 86.1789 363.028 86.4971 362.816 86.8639C362.816 86.8639 362.757 86.9227 362.746 86.9579C362.584 87.2264 362.51 87.5388 362.534 87.8514C362.585 88.1919 362.719 88.5147 362.924 88.7914C363.129 89.0681 363.399 89.2903 363.71 89.4384C364.207 89.6903 364.769 89.7826 365.32 89.7027C365.872 89.6227 366.385 89.3744 366.79 88.9917C367.174 88.5856 367.389 88.0484 367.391 87.4893C367.394 86.9302 367.183 86.3913 366.801 85.9822Z" fill="#EBAE17"/>
<path d="M367.389 89.6385C367.295 89.6385 367.189 89.2858 366.872 88.8038C366.49 88.1576 365.918 87.6443 365.235 87.3332C364.552 87.0221 363.79 86.9281 363.051 87.0639C362.475 87.1462 362.123 87.3108 362.087 87.2285C362.052 87.1462 362.322 86.8641 362.957 86.6407C363.788 86.3733 364.689 86.4236 365.485 86.7818C366.288 87.1394 366.923 87.7917 367.26 88.604C367.507 89.2153 367.472 89.6267 367.389 89.6385Z" fill="#263238"/>
<path d="M343.395 91.0963C343.395 91.0963 343.736 91.684 343.289 92.5775C343.037 93.1121 342.592 93.5319 342.043 93.7531C341.701 93.8756 341.335 93.9171 340.974 93.8743C340.613 93.8314 340.267 93.7055 339.962 93.5062C339.653 93.3181 339.391 93.0611 339.198 92.7553C339.004 92.4494 338.883 92.1029 338.846 91.7428C338.81 91.1622 338.981 90.5876 339.328 90.1205C339.939 89.3446 340.621 89.3211 340.621 89.3916C340.621 89.4622 340.104 89.662 339.692 90.3674C339.454 90.7625 339.355 91.226 339.41 91.6841C339.454 91.9524 339.555 92.2079 339.708 92.4332C339.86 92.6585 340.059 92.8481 340.292 92.989C340.521 93.1358 340.779 93.2325 341.048 93.2731C341.318 93.3136 341.593 93.2969 341.855 93.2241C342.289 93.0687 342.664 92.7809 342.925 92.4012C343.383 91.6723 343.301 91.0963 343.395 91.0963Z" fill="#EBAE17"/>
<path d="M339.433 90.6373C339.492 90.6373 339.433 91.037 338.881 91.2957C338.609 91.4085 338.311 91.4412 338.022 91.39C337.732 91.3389 337.463 91.2059 337.247 91.0069C337.031 90.8078 336.876 90.5511 336.801 90.2668C336.726 89.9826 336.734 89.6829 336.823 89.403C336.939 89.085 337.158 88.8156 337.446 88.6388C337.928 88.3449 338.293 88.4625 338.281 88.533C338.269 88.6036 337.999 88.6858 337.705 88.9797C337.56 89.1604 337.472 89.3797 337.452 89.6103C337.431 89.8408 337.479 90.0722 337.59 90.2756C337.7 90.4789 337.868 90.6452 338.073 90.7534C338.277 90.8617 338.509 90.9072 338.74 90.8842C339.139 90.8019 339.351 90.5903 339.433 90.6373Z" fill="#EBAE17"/>
<path d="M352.353 195.042C352.353 195.042 381.461 196.735 398.672 196.888C411.991 197.017 417.94 193.479 420.597 184.908C422.83 177.726 418.034 163.936 418.034 163.936C409.017 163.936 403.456 165.229 397.661 167.945L399.201 174.246L352.271 178.29L352.353 195.042Z" fill="#FFBE9D"/>
<path d="M408.982 180.97C407.719 179.329 406.245 177.863 404.597 176.609C402.828 175.527 400.922 174.689 398.93 174.117C399.558 174.026 400.197 174.083 400.799 174.281C402.278 174.631 403.681 175.248 404.937 176.104C406.196 176.961 407.285 178.046 408.147 179.301C408.805 180.265 409.052 180.935 408.982 180.97Z" fill="#EB996E"/>
<path d="M341.702 167.898C341.702 167.898 332.697 170.061 326.079 174.481L333.132 193.596C335.483 199.874 342.666 203.001 348.415 199.709C357.267 194.643 360.394 179.877 360.394 179.877L370.116 137.697L353.999 127.598L341.761 167.898" fill="#FFBE9D"/>
<path d="M353.94 127.598L354.598 113.726L350.989 99.6192C350.789 98.8433 350.695 97.8675 351.33 97.3973C351.645 97.1559 352.034 97.031 352.43 97.0439C352.827 97.0567 353.207 97.2065 353.505 97.4678C354.481 98.4788 359.183 110.811 359.183 110.811C359.183 110.811 366.319 106.532 367.589 106.32C368.858 106.108 370.445 109.953 370.551 110.247C370.598 111.108 370.598 111.971 370.551 112.833C370.551 112.833 374.96 112.962 375.359 113.562C375.68 114.787 375.85 116.046 375.865 117.312C375.865 117.312 377.734 117.911 378.028 119.322C378.322 120.733 378.933 123.061 378.028 123.578C377.123 124.095 375.289 125.106 375.289 125.106C375.289 125.106 374.548 132.301 374.348 132.959C374.148 133.617 370.022 137.661 370.022 137.661L353.94 127.598Z" fill="#FFBE9D"/>
<path d="M338.94 199.992C338.94 199.992 339.375 200.25 340.292 200.544C341.632 200.965 343.051 201.077 344.441 200.873C346.675 200.555 348.767 199.59 350.461 198.099C352.698 196.069 354.588 193.686 356.056 191.045C356.921 189.493 357.648 187.869 358.231 186.19C358.843 184.343 359.349 182.463 359.748 180.559C360.665 176.597 361.664 172.33 362.722 167.792C364.838 158.728 367.213 148.595 369.776 137.673V137.591H369.834C370.646 136.792 371.457 135.98 372.268 135.134C372.668 134.711 373.067 134.288 373.443 133.853C373.632 133.629 373.831 133.406 373.984 133.183C374.103 132.961 374.171 132.716 374.184 132.465C374.501 130.114 374.748 127.681 375.007 125.224V125.071L375.148 125L377.393 123.743C377.558 123.637 377.817 123.519 377.922 123.425C378.035 123.323 378.109 123.187 378.134 123.037C378.189 122.647 378.189 122.252 378.134 121.862C378.02 120.999 377.843 120.147 377.605 119.311C377.205 118.579 376.534 118.034 375.736 117.794L375.536 117.723V117.524C375.536 116.842 375.465 116.136 375.383 115.443C375.351 115.095 375.3 114.75 375.23 114.408C375.203 114.258 375.155 114.111 375.089 113.973C375.089 113.891 375.089 113.973 375.019 113.903C374.955 113.869 374.888 113.842 374.819 113.82C373.405 113.512 371.963 113.351 370.516 113.338H370.211V113.033C370.211 112.304 370.211 111.493 370.211 110.682C370.162 110.405 370.067 110.139 369.928 109.894C369.811 109.612 369.67 109.341 369.529 109.059C369.253 108.515 368.931 107.996 368.565 107.508C368.398 107.28 368.196 107.082 367.965 106.92C367.88 106.848 367.775 106.803 367.664 106.79C367.553 106.777 367.441 106.798 367.342 106.849C366.773 107.067 366.22 107.322 365.685 107.613C363.498 108.789 361.358 109.965 359.266 111.234L358.96 111.422L358.831 111.093C357.726 108.307 356.621 105.556 355.539 102.864C354.998 101.512 354.469 100.16 353.929 98.8316C353.845 98.534 353.68 98.2659 353.451 98.058C353.222 97.8501 352.94 97.7108 352.635 97.656C352.354 97.5628 352.05 97.5679 351.772 97.6704C351.495 97.7729 351.26 97.9669 351.107 98.2203C350.961 98.4725 350.899 98.7651 350.931 99.055C350.931 99.3136 351.095 99.7133 351.166 100.031C351.354 100.713 351.53 101.383 351.707 102.053C352.059 103.405 352.4 104.733 352.753 106.05C353.443 108.699 354.121 111.285 354.787 113.809V113.891C354.552 118.719 354.328 123.343 354.117 127.763V127.74L343.407 162.584L340.386 172.283C340.033 173.376 339.763 174.234 339.575 174.834C339.386 175.433 339.269 175.692 339.269 175.692C339.269 175.692 339.328 175.386 339.492 174.81L340.233 172.236C340.915 169.967 341.89 166.687 343.125 162.502C345.664 154.085 349.273 142.07 353.635 127.587V127.645C353.838 123.241 354.046 118.617 354.258 113.773V113.856C353.588 111.328 352.894 108.742 352.2 106.109L351.142 102.112C350.966 101.441 350.79 100.76 350.602 100.09C350.5 99.7375 350.418 99.3804 350.355 99.0197C350.311 98.6117 350.398 98.2003 350.602 97.8441C350.819 97.4774 351.155 97.1956 351.554 97.0447C351.948 96.9293 352.366 96.9162 352.767 97.0067C353.168 97.0972 353.539 97.2883 353.846 97.562C354.141 97.8388 354.36 98.187 354.481 98.573L356.092 102.605C357.185 105.309 358.278 108.06 359.395 110.834L358.96 110.682C361.064 109.436 363.18 108.189 365.414 107.026C365.979 106.73 366.56 106.467 367.154 106.238C367.34 106.161 367.542 106.132 367.742 106.156C367.943 106.185 368.135 106.257 368.306 106.367C368.589 106.57 368.839 106.816 369.047 107.096C369.44 107.611 369.782 108.162 370.069 108.742C370.222 109.036 370.363 109.318 370.493 109.612C370.66 109.923 370.771 110.261 370.822 110.611C370.822 111.446 370.822 112.222 370.822 112.962L370.528 112.645C372.039 112.655 373.545 112.828 375.019 113.162C375.12 113.197 375.218 113.241 375.313 113.291C375.442 113.362 375.548 113.468 375.618 113.597C375.71 113.788 375.777 113.989 375.818 114.197C375.889 114.573 375.936 114.926 375.983 115.29C376.053 116.007 376.1 116.712 376.136 117.418L375.924 117.136C376.405 117.277 376.852 117.514 377.238 117.833C377.624 118.153 377.941 118.547 378.169 118.993C378.427 119.886 378.616 120.798 378.734 121.72C378.815 122.191 378.815 122.672 378.734 123.143C378.682 123.428 378.533 123.686 378.31 123.872C378.118 124.001 377.917 124.119 377.711 124.225L375.477 125.388L375.63 125.165C375.36 127.622 375.113 130.032 374.784 132.418L374.713 132.877C374.686 133.063 374.609 133.237 374.49 133.382C374.317 133.64 374.124 133.883 373.914 134.111C373.514 134.558 373.114 134.993 372.738 135.416C371.927 136.263 371.116 137.074 370.293 137.873L370.375 137.732C367.789 148.642 365.391 158.775 363.239 167.839C362.169 172.365 361.147 176.633 360.206 180.583C359.804 182.501 359.286 184.393 358.654 186.249C358.05 187.943 357.302 189.583 356.421 191.151C354.919 193.826 352.984 196.233 350.696 198.275C348.952 199.777 346.806 200.733 344.524 201.026C343.103 201.217 341.658 201.072 340.303 200.603C339.959 200.476 339.625 200.323 339.304 200.144L338.94 199.992Z" fill="#EB996E"/>
<path d="M370.563 112.868C370.563 112.951 370.164 112.998 369.54 113.021C368.749 113.036 367.962 113.131 367.189 113.303C366.444 113.486 365.757 113.854 365.191 114.373C364.768 114.773 364.579 115.114 364.485 115.078C364.391 115.043 364.485 114.62 364.873 114.079C365.421 113.395 366.183 112.914 367.036 112.715C367.859 112.513 368.714 112.473 369.552 112.598C370.187 112.68 370.563 112.786 370.563 112.868Z" fill="#EB996E"/>
<path d="M367.154 112.997C367.001 112.939 366.989 112.574 367.154 112.186C367.319 111.798 367.554 111.528 367.707 111.587C367.859 111.645 367.883 112.01 367.707 112.398C367.53 112.786 367.272 113.056 367.154 112.997Z" fill="#EB996E"/>
<path d="M376.065 117.265C374.924 117.618 373.732 117.781 372.538 117.747C372.162 117.734 371.789 117.812 371.449 117.974C371.11 118.135 370.814 118.376 370.587 118.675C370.281 119.157 370.387 119.557 370.293 119.581C370.199 119.604 369.916 119.193 370.21 118.487C370.372 118.09 370.667 117.762 371.045 117.559C371.48 117.32 371.961 117.176 372.456 117.135C373.656 116.952 374.881 116.995 376.065 117.265Z" fill="#EB996E"/>
<path d="M375.289 121.497C375.453 121.497 375.548 122.367 375.5 123.437C375.453 124.507 375.277 125.353 375.113 125.353C374.948 125.353 374.842 124.471 374.889 123.402C374.936 122.332 375.113 121.485 375.289 121.497Z" fill="#EB996E"/>
<path d="M380.168 153.156L381.214 149.558C381.262 149.394 381.352 149.244 381.475 149.125C381.598 149.006 381.75 148.921 381.916 148.878C382.082 148.835 382.257 148.836 382.422 148.882C382.588 148.927 382.738 149.014 382.86 149.135L384.235 150.534L385.082 147.137C385.132 146.94 385.24 146.764 385.394 146.632C385.547 146.5 385.737 146.418 385.939 146.397C386.14 146.377 386.343 146.419 386.52 146.517C386.697 146.616 386.839 146.766 386.927 146.949L388.844 150.969L380.168 153.156Z" fill="white"/>
<path d="M388.867 152.509C387.552 153.145 386.155 153.596 384.717 153.849C383.326 154.304 381.877 154.557 380.414 154.602C383.121 153.515 385.966 152.81 388.867 152.509Z" fill="white"/>
<path d="M318.955 132.441C318.955 132.441 318.52 132.888 317.908 133.84C317.088 135.196 316.548 136.704 316.321 138.272C315.986 140.608 315.915 142.974 316.11 145.326C316.239 147.995 316.45 150.91 316.78 153.967C317.336 159.187 318.164 164.374 319.26 169.508C319.672 171.483 320.048 173.035 320.306 174.21C320.424 174.704 320.53 175.116 320.612 175.468C320.694 175.821 320.706 175.915 320.706 175.915C320.706 175.915 320.647 175.774 320.565 175.492C320.483 175.21 320.353 174.716 320.224 174.234C319.93 173.141 319.531 171.565 319.049 169.59C317.906 164.458 317.054 159.265 316.498 154.037C316.168 150.981 315.968 148.053 315.851 145.385C315.673 143.031 315.76 140.665 316.11 138.331C316.362 136.742 316.938 135.221 317.802 133.864C318.121 133.34 318.508 132.862 318.955 132.441Z" fill="white"/>
<path d="M343.7 116.43L343.43 116.571L342.654 116.948C341.984 117.265 341.008 117.735 339.844 118.382C336.81 120.074 333.864 121.918 331.016 123.907C327.654 126.258 324.679 128.398 322.504 129.95L319.93 131.772L319.213 132.254C319.133 132.318 319.046 132.373 318.954 132.419C319.021 132.34 319.101 132.272 319.189 132.219L319.871 131.701L322.399 129.809C324.55 128.222 327.512 126.012 330.875 123.707C333.728 121.71 336.695 119.881 339.762 118.229C340.938 117.606 341.925 117.159 342.619 116.865L343.406 116.536C343.642 116.454 343.642 116.419 343.7 116.43Z" fill="white"/>
<path d="M399.765 124.083C399.691 124.042 399.624 123.991 399.565 123.93L399.036 123.472C398.381 122.919 397.694 122.405 396.979 121.932C394.592 120.41 392.06 119.13 389.42 118.111C386.788 117.069 384.099 116.174 381.367 115.431C380.309 115.137 379.463 114.925 378.863 114.784L378.193 114.608C378.111 114.591 378.032 114.563 377.958 114.526H378.205L378.886 114.655C379.486 114.773 380.344 114.961 381.402 115.231C384.16 115.927 386.87 116.803 389.514 117.853C392.169 118.871 394.705 120.18 397.073 121.756C398.059 122.423 398.962 123.204 399.765 124.083Z" fill="white"/>
<path d="M344.03 213.816C343.87 213.788 343.716 213.737 343.571 213.664C343.163 213.484 342.77 213.272 342.396 213.029C341.763 212.649 341.21 212.149 340.771 211.556C340.331 210.963 340.012 210.289 339.833 209.572C339.51 208.127 339.671 206.615 340.292 205.27C340.471 204.852 340.7 204.457 340.973 204.094C341.161 203.847 341.291 203.73 341.303 203.742C340.982 204.243 340.695 204.765 340.444 205.305C339.898 206.626 339.771 208.083 340.08 209.478C340.417 210.856 341.255 212.059 342.431 212.852C343.407 213.558 344.053 213.769 344.03 213.816Z" fill="white"/>
<path d="M340.292 201.085C340.542 201.551 340.727 202.05 340.844 202.566C341.028 203.061 341.139 203.579 341.173 204.106C340.906 203.65 340.715 203.154 340.609 202.637C340.416 202.141 340.309 201.616 340.292 201.085Z" fill="white"/>
<path d="M356.186 464.665L392.042 464.489L391.395 340.522L391.054 214.416L342.467 213.793L333.732 230.252C330.158 236.868 327.88 244.106 327.019 251.577C326.432 257.29 330.711 275.865 332.192 280.567L345.559 322.959L356.186 464.665Z" fill="#263238"/>
<path d="M401.575 214.569L440.981 321.983C443.316 328.904 444.091 336.255 443.252 343.511C442.412 350.766 439.979 357.747 436.126 363.952L390.372 453.297L364.65 421.109L402.927 341.169L369.187 286.445L374.866 214.733L390.76 214.475L401.575 214.569Z" fill="#263238"/>
<path d="M387.786 250.554C387.786 250.554 387.786 250.742 387.786 251.107C387.786 251.471 387.844 252.035 387.891 252.729C387.974 254.175 388.08 256.256 388.221 258.948C388.491 264.391 388.867 272.209 389.396 281.86C389.925 291.512 390.372 303.021 390.96 315.835C391.242 322.23 391.548 328.943 391.853 335.902C392.077 339.429 391.983 342.956 392.018 346.483C392.053 350.01 392.018 353.724 392.018 357.416C392.018 386.959 392.112 413.703 392.147 433.089C392.147 442.752 392.147 450.582 392.147 456.025C392.147 458.717 392.147 460.81 392.147 462.267C392.147 462.949 392.147 463.443 392.147 463.89C392.147 464.336 392.147 464.442 392.147 464.442C392.147 464.442 392.147 464.254 392.147 463.89V462.267C392.147 460.81 392.147 458.74 392.077 456.025C392.077 450.582 391.983 442.764 391.912 433.101C391.83 413.715 391.724 386.97 391.606 357.428C391.606 353.736 391.606 350.092 391.606 346.495C391.606 342.897 391.677 339.347 391.454 335.914C391.16 328.966 390.866 322.254 390.595 315.859C390.055 303.068 389.561 291.559 389.161 281.872C388.761 272.185 388.468 264.403 388.244 258.96C388.15 256.279 388.08 254.187 388.033 252.729C388.033 252.035 388.033 251.553 388.033 251.107C388.033 250.66 387.786 250.554 387.786 250.554Z" fill="#455A64"/>
<path d="M386.881 216.685C387.018 217.063 387.101 217.459 387.128 217.861C387.257 218.613 387.398 219.706 387.563 221.07C387.868 223.786 388.197 227.559 388.385 231.733C388.574 235.906 388.585 239.691 388.527 242.431C388.527 243.794 388.444 244.911 388.385 245.675C388.397 246.072 388.35 246.468 388.244 246.851C388.096 245.382 388.045 243.906 388.092 242.431C388.092 239.691 387.962 235.93 387.774 231.756C387.586 227.583 387.327 223.833 387.128 221.176C386.96 219.685 386.878 218.185 386.881 216.685Z" fill="#455A64"/>
<path d="M378.981 219.107C379.039 219.189 378.369 219.495 378.181 220.447C378.128 220.706 378.143 220.973 378.223 221.224C378.303 221.475 378.447 221.702 378.64 221.882C378.872 222.098 379.162 222.243 379.475 222.299C379.787 222.355 380.11 222.321 380.403 222.199C380.685 222.054 380.92 221.833 381.082 221.56C381.244 221.288 381.327 220.976 381.32 220.659C381.309 220.396 381.231 220.14 381.093 219.916C380.955 219.691 380.762 219.506 380.532 219.378C380.054 219.146 379.521 219.052 378.992 219.107C378.992 219.107 379.11 218.954 379.415 218.86C379.856 218.753 380.321 218.798 380.732 218.99C381.06 219.126 381.344 219.351 381.552 219.64C381.759 219.928 381.883 220.269 381.908 220.624C381.954 221.061 381.863 221.503 381.645 221.885C381.428 222.268 381.096 222.573 380.696 222.758C380.297 222.942 379.849 222.996 379.417 222.913C378.985 222.829 378.589 222.613 378.287 222.293C378.037 222.045 377.86 221.732 377.775 221.39C377.69 221.048 377.7 220.69 377.805 220.353C377.923 219.913 378.189 219.527 378.557 219.26C378.792 219.095 378.969 219.072 378.981 219.107Z" fill="#455A64"/>
<path d="M360.171 216.979C360.344 217.35 360.451 217.747 360.488 218.155C360.677 219.21 360.713 220.287 360.594 221.352C360.425 222.939 359.967 224.481 359.242 225.902C358.367 227.67 357.071 229.195 355.468 230.345C353.865 231.495 352.004 232.234 350.049 232.497C348.484 232.731 346.889 232.671 345.347 232.321C344.303 232.094 343.297 231.718 342.36 231.204C342.007 231.036 341.681 230.814 341.396 230.545C342.696 231.13 344.051 231.583 345.441 231.897C347.113 232.245 348.839 232.242 350.509 231.889C352.18 231.536 353.76 230.841 355.148 229.846C356.537 228.852 357.704 227.581 358.577 226.113C359.449 224.645 360.008 223.012 360.218 221.317C360.356 219.873 360.34 218.419 360.171 216.979Z" fill="#455A64"/>
<path d="M406.301 227.277C405.534 227.366 404.757 227.273 404.032 227.007C402.256 226.447 400.661 225.425 399.412 224.044C398.151 222.67 397.286 220.98 396.908 219.154C396.723 218.409 396.723 217.63 396.908 216.885C397.014 216.885 397.025 217.743 397.378 219.06C397.855 220.761 398.721 222.328 399.909 223.636C401.096 224.944 402.573 225.957 404.22 226.595C405.443 227.077 406.313 227.159 406.301 227.277Z" fill="#455A64"/>
<path d="M420.303 343.073C419.713 343.746 419.009 344.307 418.222 344.731C417.396 345.255 416.497 345.651 415.553 345.907C414.366 346.221 413.113 346.189 411.944 345.813C409.891 345.038 408.131 343.64 406.913 341.816C406.353 341.13 405.89 340.37 405.537 339.558C406.172 340.164 406.746 340.829 407.253 341.545C408.502 343.201 410.187 344.475 412.12 345.225C413.107 345.488 414.137 345.548 415.148 345.4C416.158 345.253 417.128 344.901 417.998 344.367C418.741 343.892 419.51 343.46 420.303 343.073Z" fill="#455A64"/>
<path d="M411.321 349.927C409.932 348.488 408.691 346.913 407.618 345.225C406.382 343.653 405.303 341.964 404.397 340.181C405.795 341.615 407.041 343.191 408.112 344.884C409.358 346.446 410.434 348.137 411.321 349.927Z" fill="#455A64"/>
<path d="M351.083 254.704C350.919 254.763 350.507 254.093 350.143 253.188C349.779 252.282 349.626 251.518 349.779 251.448C349.931 251.377 350.355 252.059 350.707 252.964C351.06 253.869 351.236 254.704 351.083 254.704Z" fill="#FAFAFA"/>
<path d="M373.843 257.972C373.667 257.972 373.537 257.396 373.537 256.679C373.537 255.962 373.667 255.374 373.843 255.374C374.019 255.374 374.149 255.962 374.149 256.679C374.149 257.396 374.008 257.972 373.843 257.972Z" fill="#FAFAFA"/>
<path d="M364.485 270.339C364.321 270.339 364.133 269.634 364.074 268.729C364.015 267.824 364.074 267.095 364.262 267.083C364.45 267.071 364.626 267.788 364.685 268.693C364.744 269.599 364.65 270.328 364.485 270.339Z" fill="#FAFAFA"/>
<path d="M347.392 279.391C347.251 279.497 346.769 279.062 346.134 278.615C345.499 278.169 344.958 277.828 344.958 277.663C344.958 277.498 345.734 277.593 346.452 278.11C347.169 278.627 347.533 279.391 347.392 279.391Z" fill="#FAFAFA"/>
<path d="M377.523 290.924C377.382 290.83 377.523 290.325 377.922 289.748C378.322 289.172 378.687 288.843 378.828 288.937C378.969 289.031 378.828 289.549 378.428 290.113C378.028 290.677 377.664 291.018 377.523 290.924Z" fill="#FAFAFA"/>
<path d="M358.925 294.18C358.76 294.18 358.619 293.205 358.619 292.017C358.619 290.83 358.76 289.843 358.925 289.843C359.089 289.843 359.23 290.818 359.23 292.017C359.23 293.216 359.054 294.18 358.925 294.18Z" fill="#FAFAFA"/>
<path d="M352.835 307.37C352.741 307.5 352.13 307.229 351.472 306.747C350.813 306.265 350.296 305.771 350.449 305.63C350.602 305.489 351.166 305.771 351.824 306.253C352.483 306.735 352.941 307.229 352.835 307.37Z" fill="#FAFAFA"/>
<path d="M371.668 311.955C371.739 312.108 371.363 312.425 370.822 312.672C370.281 312.919 369.787 312.978 369.717 312.825C369.646 312.672 370.034 312.355 370.575 312.108C371.116 311.861 371.609 311.802 371.668 311.955Z" fill="#FAFAFA"/>
<path d="M358.924 333.469C358.783 333.54 358.172 332.634 357.573 331.435C356.973 330.236 356.609 329.202 356.761 329.084C356.914 328.966 357.526 329.919 358.113 331.118C358.701 332.317 359.03 333.34 358.924 333.469Z" fill="#FAFAFA"/>
<path d="M379.698 331.47C379.545 331.388 379.815 330.6 380.286 329.695C380.756 328.79 381.285 328.131 381.461 328.214C381.638 328.296 381.344 329.084 380.862 329.989C380.38 330.894 379.839 331.552 379.698 331.47Z" fill="#FAFAFA"/>
<path d="M370.587 349.681C370.41 349.681 370.434 348.728 370.246 347.623C370.058 346.518 369.775 345.636 369.94 345.554C370.105 345.472 370.669 346.307 370.857 347.529C371.045 348.752 370.751 349.716 370.587 349.681Z" fill="#FAFAFA"/>
<path d="M360.829 360.084C360.712 360.202 360.124 359.755 359.524 359.096C358.925 358.438 358.537 357.815 358.666 357.697C358.796 357.58 359.372 358.027 359.971 358.685C360.571 359.343 360.959 359.966 360.829 360.084Z" fill="#FAFAFA"/>
<path d="M384.506 364.034C384.388 363.917 384.823 363.282 385.482 362.612C386.14 361.942 386.751 361.507 386.881 361.624C387.01 361.742 386.563 362.388 385.917 363.047C385.27 363.705 384.635 364.152 384.506 364.034Z" fill="#FAFAFA"/>
<path d="M370.892 379.611C370.728 379.611 370.728 378.682 370.892 377.601C371.057 376.519 371.316 375.673 371.492 375.696C371.668 375.72 371.657 376.613 371.492 377.695C371.327 378.776 371.057 379.635 370.892 379.611Z" fill="#FAFAFA"/>
<path d="M361.735 387.17C361.582 387.252 361.065 386.641 360.559 385.806C360.054 384.972 359.795 384.231 359.936 384.149C360.077 384.066 360.594 384.666 361.112 385.501C361.629 386.335 361.876 387.076 361.735 387.17Z" fill="#FAFAFA"/>
<path d="M383.8 396.704C383.906 396.846 383.307 397.445 382.46 398.045C381.614 398.644 380.873 399.02 380.767 398.879C380.661 398.738 381.273 398.139 382.107 397.539C382.942 396.94 383.706 396.575 383.8 396.704Z" fill="#FAFAFA"/>
<path d="M365.414 409.083C365.249 409.024 365.414 408.084 365.567 406.908C365.72 405.733 365.626 404.769 365.802 404.745C365.978 404.722 366.284 405.709 366.166 406.967C366.049 408.225 365.567 409.154 365.414 409.083Z" fill="#FAFAFA"/>
<path d="M372.761 426.858C372.62 426.964 372.127 426.564 371.645 425.965C371.163 425.365 370.892 424.789 371.021 424.683C371.151 424.577 371.645 424.977 372.127 425.577C372.609 426.176 372.891 426.752 372.761 426.858Z" fill="#FAFAFA"/>
<path d="M364.732 438.779C364.591 438.873 363.945 438.179 363.286 437.215C362.628 436.251 362.216 435.405 362.346 435.311C362.475 435.216 363.133 435.91 363.792 436.874C364.45 437.838 364.873 438.684 364.732 438.779Z" fill="#FAFAFA"/>
<path d="M386.845 423.814C386.692 423.755 386.704 423.32 386.845 422.85C386.986 422.379 387.303 422.027 387.468 422.086C387.633 422.144 387.609 422.579 387.468 423.061C387.327 423.543 387.009 423.884 386.845 423.814Z" fill="#FAFAFA"/>
<path d="M377.088 452.204C376.935 452.121 377.229 451.287 377.464 450.24C377.699 449.194 377.781 448.312 377.958 448.301C378.134 448.289 378.31 449.241 378.063 450.37C377.816 451.498 377.229 452.298 377.088 452.204Z" fill="#FAFAFA"/>
<path d="M383.436 270.527C383.283 270.598 382.907 270.128 382.601 269.469C382.296 268.811 382.166 268.223 382.319 268.153C382.472 268.082 382.848 268.552 383.154 269.211C383.46 269.869 383.612 270.457 383.436 270.527Z" fill="#FAFAFA"/>
<path d="M367.154 233.919C367.248 234.06 366.425 234.719 365.543 235.659C364.662 236.6 364.062 237.47 363.909 237.387C363.756 237.305 364.156 236.212 365.085 235.248C366.014 234.284 367.036 233.766 367.154 233.919Z" fill="#FAFAFA"/>
<path d="M381.649 233.543C381.473 233.543 381.202 232.873 380.791 232.074C380.379 231.274 380.003 230.616 380.133 230.498C380.262 230.381 380.897 230.898 381.308 231.791C381.72 232.685 381.802 233.449 381.649 233.543Z" fill="#FAFAFA"/>
<path d="M336.388 245.429C336.236 245.358 336.388 244.582 336.753 243.689C337.117 242.795 337.517 242.102 337.682 242.172C337.846 242.243 337.682 243.007 337.317 243.912C336.953 244.817 336.588 245.487 336.388 245.429Z" fill="#FAFAFA"/>
<path d="M337.858 263.18C337.74 263.309 337.07 262.933 336.353 262.333C335.636 261.734 335.178 261.158 335.248 261.017C335.319 260.876 336.036 261.264 336.753 261.863C337.47 262.463 337.964 263.051 337.858 263.18Z" fill="#FAFAFA"/>
<path d="M367.554 219.824C367.401 219.824 367.072 219.448 366.837 218.848C366.601 218.248 366.531 217.672 366.684 217.672C366.837 217.672 367.166 218.049 367.401 218.648C367.636 219.248 367.706 219.765 367.554 219.824Z" fill="#FAFAFA"/>
<path d="M395.991 228.499C395.827 228.499 395.839 227.759 395.991 226.924C396.144 226.089 396.45 225.431 396.614 225.466C396.779 225.502 396.767 226.219 396.614 227.053C396.462 227.888 396.156 228.535 395.991 228.499Z" fill="#FAFAFA"/>
<path d="M402.669 241.937C402.516 241.866 402.728 240.996 403.151 239.973C403.574 238.951 404.032 238.187 404.185 238.245C404.338 238.304 404.185 239.186 403.715 240.209C403.245 241.231 402.833 241.996 402.669 241.937Z" fill="#FAFAFA"/>
<path d="M397.908 252.776C397.755 252.846 397.19 252.035 396.65 250.966C396.109 249.896 395.803 248.943 395.956 248.873C396.109 248.802 396.661 249.614 397.202 250.683C397.743 251.753 398.06 252.694 397.908 252.776Z" fill="#FAFAFA"/>
<path d="M408.088 263.615C407.936 263.556 408.088 262.874 408.347 262.098C408.606 261.322 409.017 260.735 409.182 260.793C409.346 260.852 409.182 261.534 408.923 262.31C408.665 263.086 408.3 263.674 408.088 263.615Z" fill="#FAFAFA"/>
<path d="M398.989 274.23C398.848 274.324 398.484 274.007 398.19 273.537C397.896 273.066 397.755 272.596 397.908 272.502C398.06 272.408 398.401 272.725 398.707 273.207C399.013 273.689 399.13 274.148 398.989 274.23Z" fill="#FAFAFA"/>
<path d="M400.929 296.144C400.811 296.25 400.071 295.674 399.295 294.827C398.519 293.981 397.99 293.217 398.119 293.099C398.248 292.981 398.977 293.569 399.753 294.416C400.529 295.262 401.058 296.026 400.929 296.144Z" fill="#FAFAFA"/>
<path d="M412.861 283.553C412.732 283.659 412.085 283.071 411.427 282.224C410.769 281.378 410.345 280.625 410.475 280.52C410.604 280.414 411.251 281.013 411.909 281.848C412.567 282.683 413.002 283.459 412.861 283.553Z" fill="#FAFAFA"/>
<path d="M419.409 300.916C419.257 300.846 419.527 299.964 420.009 298.953C420.491 297.942 420.996 297.166 421.185 297.237C421.373 297.307 421.079 298.201 420.597 299.212C420.115 300.223 419.562 300.999 419.409 300.916Z" fill="#FAFAFA"/>
<path d="M405.49 315.212C405.337 315.294 404.796 314.647 404.044 313.954C403.292 313.26 402.598 312.778 402.669 312.602C402.739 312.426 403.633 312.743 404.455 313.507C405.278 314.271 405.631 315.129 405.49 315.212Z" fill="#FAFAFA"/>
<path d="M406.36 329.942C406.36 330.107 405.772 330.248 405.055 330.248C404.338 330.248 403.762 330.107 403.762 329.942C403.762 329.778 404.338 329.636 405.055 329.636C405.772 329.636 406.36 329.778 406.36 329.942Z" fill="#FAFAFA"/>
<path d="M420.667 325.827C420.514 325.745 420.82 325.004 421.043 324.087C421.267 323.17 421.361 322.371 421.537 322.359C421.713 322.347 421.902 323.206 421.643 324.228C421.384 325.251 420.796 325.921 420.667 325.827Z" fill="#FAFAFA"/>
<path d="M434.88 330.777C434.727 330.835 434.292 330.001 433.916 328.931C433.54 327.861 433.364 326.944 433.516 326.897C433.669 326.85 434.116 327.661 434.492 328.731C434.868 329.801 435.045 330.718 434.88 330.777Z" fill="#FAFAFA"/>
<path d="M432.611 350.997C432.47 350.915 432.834 349.927 433.422 348.787C434.01 347.646 434.598 346.788 434.774 346.87C434.95 346.953 434.562 347.94 433.963 349.069C433.363 350.197 432.764 351.103 432.611 350.997Z" fill="#FAFAFA"/>
<path d="M419.645 362.859C419.492 362.917 419.01 362.106 418.563 361.036C418.116 359.967 417.893 359.05 418.057 358.979C418.222 358.909 418.692 359.731 419.127 360.801C419.562 361.871 419.797 362.859 419.645 362.859Z" fill="#FAFAFA"/>
<path d="M405.278 367.456C405.278 367.62 404.785 367.761 404.185 367.761C403.586 367.761 403.104 367.62 403.104 367.456C403.104 367.291 403.597 367.15 404.185 367.15C404.773 367.15 405.278 367.291 405.278 367.456Z" fill="#FAFAFA"/>
<path d="M413.508 386.37C413.355 386.37 413.026 385.724 412.779 384.83C412.532 383.937 412.485 383.161 412.65 383.126C412.814 383.091 413.132 383.772 413.379 384.666C413.625 385.559 413.672 386.276 413.508 386.37Z" fill="#FAFAFA"/>
<path d="M403.104 380.022C402.962 379.94 403.104 379.387 403.491 378.788C403.879 378.188 404.267 377.777 404.408 377.859C404.55 377.941 404.408 378.506 404.02 379.105C403.633 379.705 403.256 380.116 403.104 380.022Z" fill="#FAFAFA"/>
<path d="M402.892 400.842C402.728 400.842 402.492 400.055 402.375 399.032C402.257 398.009 402.293 397.174 402.457 397.151C402.622 397.127 402.857 397.939 402.974 398.961C403.092 399.984 403.057 400.819 402.892 400.842Z" fill="#FAFAFA"/>
</g>
<defs>
<clipPath id="clip0_420_1552">
<rect width="500" height="500" fill="white"/>
</clipPath>
</defs>
</svg>
