<svg width="209" height="26" viewBox="0 0 209 26" fill="none" xmlns="http://www.w3.org/2000/svg">
<path d="M0.917969 1.85156L5.34766 1.14844V10.7812L4.80273 19.3594C5.70508 19.7109 6.92383 19.9922 8.45898 20.2031C9.99414 20.4023 10.9199 20.5254 11.2363 20.5723L10.2344 24.4746C8.98047 24.3105 7.9668 24.1582 7.19336 24.0176L5.13672 23.6309C3.01562 23.2207 1.60938 22.8516 0.917969 22.5234V1.85156ZM13.8203 12.293C13.8203 10.7227 13.9844 9.81445 14.3125 9.56836C14.6406 9.32227 15.0098 9.07617 15.4199 8.83008C15.8301 8.57227 16.2812 8.32031 16.7734 8.07422C17.2656 7.82812 17.7754 7.59375 18.3027 7.37109C18.8418 7.14844 19.3691 6.94922 19.8848 6.77344C20.9863 6.39844 21.8066 6.21094 22.3457 6.21094C22.8965 6.21094 23.3418 6.24023 23.6816 6.29883C24.0215 6.3457 24.332 6.42773 24.6133 6.54492C25.2578 6.81445 25.6211 7.20703 25.7031 7.72266C26.0898 10.1719 26.2832 13.0898 26.2832 16.4766V17.5137L17.8633 17.6191V19.9043C18.7773 20.127 19.8672 20.332 21.1328 20.5195L24.1562 21.0117C24.9297 21.1289 25.7207 21.2637 26.5293 21.416L25.4922 25.2656C22.2695 24.7617 18.8477 23.9473 15.2266 22.8223C14.3945 22.5527 13.9668 22.0664 13.9434 21.3633L13.8203 12.293ZM22.3281 13.7344C22.3281 12.6328 22.2168 11.4727 21.9941 10.2539C21.5254 10.2539 21.1504 10.2773 20.8691 10.3242C20.5879 10.3711 20.3066 10.4355 20.0254 10.5176C19.7441 10.5996 19.457 10.6934 19.1641 10.7988C18.4727 11.0449 18.0156 11.2559 17.793 11.4316V14.5957L22.3281 14.1035V13.7344ZM31.4863 7.61719L35.5996 6.89648L35.7051 10.2188V12.2227L40.7852 11.291C41.5 10.1543 41.8574 8.85938 41.8574 7.40625C41.8574 7.01953 41.8223 6.65625 41.752 6.31641C38.8691 5.50781 34.791 5.10352 29.5176 5.10352L30.1504 0.919922C35.3652 0.990234 39.8301 1.42383 43.5449 2.2207C44.0957 2.36133 44.7051 2.96484 45.373 4.03125C46.0059 5.03906 46.3223 5.74219 46.3223 6.14062C46.3223 6.53906 46.293 6.96094 46.2344 7.40625C46.1758 7.83984 46.0879 8.30859 45.9707 8.8125C45.5371 10.6758 45.0684 11.8359 44.5645 12.293C44.2363 12.5977 43.3105 12.9844 41.7871 13.4531L41.752 13.5938L45.25 15.1758C45.4141 15.8789 45.4961 16.5762 45.4961 17.2676C45.4961 17.9473 45.4551 18.5449 45.373 19.0605C45.291 19.5762 45.1914 20.0625 45.0742 20.5195C44.6758 21.9492 44.248 22.8164 43.791 23.1211C43.0645 23.6016 40.3047 24.0586 35.5117 24.4922C34.0234 24.6211 32.8516 24.6973 31.9961 24.7207L31.4863 7.61719ZM35.9512 21.0117C38.1191 20.8242 39.7012 20.5723 40.6973 20.2559C41.0605 19.0605 41.2422 18.1641 41.2422 17.5664C41.2422 16.957 41.2246 16.5 41.1895 16.1953C41.166 15.8789 41.0664 15.6504 40.8906 15.5098L35.8457 15L35.9512 21.0117ZM54.5312 13.5938C54.5312 16.418 54.6777 18.8672 54.9707 20.9414L58.4336 20.7656C59.0664 18.2578 59.3828 15.8086 59.3828 13.418C59.3828 12.457 59.3184 11.6016 59.1895 10.8516C58.4863 10.5 56.002 10.3242 51.7363 10.3242H50.8398C50.5938 10.3242 50.3242 10.3359 50.0312 10.3594L50.7871 6.28125C50.9863 6.26953 51.168 6.25781 51.332 6.24609C51.5078 6.22266 51.6836 6.21094 51.8594 6.21094L52.3867 6.17578C52.5625 6.17578 53.0547 6.17578 53.8633 6.17578C56.1836 6.17578 58.7266 6.48633 61.4922 7.10742C62.3711 7.33008 62.9102 7.72266 63.1094 8.28516C63.4141 9.15234 63.5664 10.5645 63.5664 12.5215C63.5664 16.0957 63.0215 19.5527 61.9316 22.8926C61.8379 23.1973 61.7266 23.4551 61.5977 23.666C61.4805 23.877 61.2695 24.0117 60.9648 24.0703C60.6602 24.1406 60.3027 24.2051 59.8926 24.2637C59.4824 24.3223 59.0781 24.375 58.6797 24.4219C57.8125 24.5039 57.2148 24.5449 56.8867 24.5449C56.5586 24.5449 56.207 24.5391 55.832 24.5273C55.457 24.5273 55.0469 24.5156 54.6016 24.4922C53.4297 24.4336 52.6387 24.3281 52.2285 24.1758C51.8184 24.0352 51.5371 23.7891 51.3848 23.4375C51.2441 23.0859 51.1035 22.5234 50.9629 21.75C50.6348 19.9453 50.4707 17.8887 50.4707 15.5801C50.4707 14.7012 50.4941 13.8281 50.541 12.9609L54.5312 12.1699V13.5938ZM67.8379 7.19531L71.582 6.7207L72.1973 9.39258L75.291 6.7207H79.6152C79.8379 6.7207 80.1484 6.89062 80.5469 7.23047C81.2148 7.78125 81.5488 8.27344 81.5488 8.70703L80.9336 24.0352L77.0137 24.3516L76.9434 10.7812C76.8027 10.7344 76.6094 10.7109 76.3633 10.7109C76.1172 10.7109 75.8887 10.7227 75.6777 10.7461C75.4785 10.7695 75.2617 10.8047 75.0273 10.8516C74.4766 10.9453 74.0254 11.0566 73.6738 11.1855L72.373 11.6602L71.8984 23.8594L68.1543 24.1406L67.8379 7.19531Z" fill="#EBAE17"/>
<path d="M86.6992 11.6074C86.7695 10.1309 86.8809 8.73047 87.0332 7.40625C87.0332 7.40625 87.1445 6.42773 87.3672 4.4707C87.4492 3.83789 87.5195 3.19336 87.5781 2.53711C90.0977 1.83398 92.6992 1.39453 95.3828 1.21875L97.9316 11.7656L98.7578 20.0449L99.5137 19.9746L101.148 2.50195C102.812 1.91602 104.828 1.5 107.195 1.25391C107.922 1.18359 108.602 1.14844 109.234 1.14844L111.449 12.1172L113.031 23.9648L108.479 24.4395L107.09 12.5215L105.93 4.91016L104.857 5.05078L104.137 12.6973L102.432 23.4902C100.416 23.8652 98.1895 24.082 95.752 24.1406L92.0781 5.13867L90.918 5.31445L90.7773 12.3633L89.7227 24.334L85.3281 23.7891L86.6992 11.6074ZM120.572 20.0801L129.098 21.3633L128.166 25.1953L125.512 24.8438C121.609 24.3047 118.68 23.7715 116.723 23.2441L116.494 2.97656C120.631 1.92188 124.568 1.21289 128.307 0.849609L128.922 5.0332L120.502 6L120.678 11.2559L128.236 10.9395L127.955 15.0703L120.713 14.8242L120.572 20.0801ZM133.738 22.0664C133.738 18.4805 133.791 14.5547 133.896 10.2891L133.562 2.43164C133.785 2.38477 134.078 2.32617 134.441 2.25586C134.441 2.25586 134.852 2.17969 135.672 2.02734C136.117 1.94531 136.586 1.86328 137.078 1.78125L138.555 1.53516C139.41 1.40625 140.289 1.3125 141.191 1.25391L145.832 15.9316L146.904 20.9766L147.924 20.8711L147.695 15.2109L147.854 1.53516L152.354 1.14844C152.26 4.67578 151.967 9.25781 151.475 14.8945L151.211 23.5254C149.113 23.9121 146.717 24.1758 144.021 24.3164L139.381 9.46289L138.344 4.82227L137.412 4.96289L137.588 10.2539L137.764 23.9648L133.738 24.3164V22.0664ZM169.65 5.2793C168.279 5.33789 166.609 5.44336 164.641 5.5957L164.799 12.9082L164.395 24L160.475 24.3164L160.264 5.75391C159.244 5.77734 158.301 5.8125 157.434 5.85938C156.578 5.90625 155.852 5.92969 155.254 5.92969L155.57 2.11523C159.625 1.58789 164.166 1.32422 169.193 1.32422L169.65 5.2793ZM175.873 24.1055C175.381 23.9883 174.988 23.8301 174.695 23.6309C174.414 23.4316 174.156 23.0332 173.922 22.4355C173.699 21.8262 173.482 21.0234 173.271 20.0273C173.072 19.0195 172.902 17.959 172.762 16.8457C172.492 14.7129 172.357 12.8789 172.357 11.3438C172.357 8.68359 172.428 7.00781 172.568 6.31641C172.709 5.61328 172.855 5.07422 173.008 4.69922C173.16 4.32422 173.359 3.99023 173.605 3.69727C174.062 3.13477 174.695 2.70703 175.504 2.41406C176.312 2.12109 177.18 1.88086 178.105 1.69336C179.031 1.49414 180.016 1.33008 181.059 1.20117C183.133 0.943359 185.365 0.791016 187.756 0.744141L188.406 4.99805C184.223 5.16211 180.871 5.50781 178.352 6.03516C177.836 6.15234 177.408 6.27539 177.068 6.4043C176.928 7.20117 176.857 8.33203 176.857 9.79688C176.857 11.2617 176.875 12.3984 176.91 13.207C176.945 14.0156 176.998 14.8242 177.068 15.6328C177.221 17.4609 177.461 19.0195 177.789 20.3086C177.953 20.332 178.123 20.3438 178.299 20.3438C178.475 20.3438 178.797 20.3438 179.266 20.3438C180.367 20.3438 181.492 20.209 182.641 19.9395C183.227 16.1309 183.52 11.918 183.52 7.30078L187.896 7.58203C187.955 8.40234 187.984 9.12305 187.984 9.74414C187.984 10.3535 187.961 11.0098 187.914 11.7129C187.879 12.4043 187.826 13.1133 187.756 13.8398C187.686 14.5547 187.604 15.2754 187.51 16.002C187.416 16.7168 187.322 17.4023 187.229 18.0586C187.135 18.7031 187.041 19.3008 186.947 19.8516L186.701 21.2227C186.502 22.1836 186.273 22.793 186.016 23.0508C185.77 23.3086 185.529 23.4902 185.295 23.5957C185.072 23.6895 184.785 23.7715 184.434 23.8418C184.082 23.9121 183.695 23.9707 183.273 24.0176C182.863 24.0762 182.43 24.123 181.973 24.1582C181.516 24.1934 181.076 24.2227 180.654 24.2461C179.951 24.2695 179.301 24.2812 178.703 24.2812C177.309 24.2812 176.365 24.2227 175.873 24.1055ZM193.398 7.61719L197.67 6.89648V10.4297L197.564 14.6836L202.609 13.4531C203.324 11.1914 203.682 9.14062 203.682 7.30078C203.682 6.91406 203.658 6.55078 203.611 6.21094C201.631 5.58984 197.723 5.16211 191.887 4.92773L192.555 0.779297C197.559 0.978516 201.895 1.45898 205.562 2.2207C205.879 2.29102 206.383 2.75391 207.074 3.60938C207.754 4.45312 208.105 5.04492 208.129 5.38477C208.164 5.72461 208.182 6.05859 208.182 6.38672V7.37109C208.182 8.89453 207.795 10.8633 207.021 13.2773C206.6 14.5898 206.184 15.4336 205.773 15.8086C205.586 15.9844 205.416 16.1133 205.264 16.1953L203.541 16.7578C205.252 18.6211 206.834 20.666 208.287 22.8926L204.631 25.3711L200.236 17.6367L197.67 17.7773L197.529 24L193.715 24.3164L193.398 7.61719Z" fill="#26809C"/>
</svg>
