<svg width="231" height="28" viewBox="0 0 231 28" fill="none" xmlns="http://www.w3.org/2000/svg">
<path d="M0.242188 1.39062L5.16406 0.609375V11.3125L4.55859 20.8438C5.5612 21.2344 6.91536 21.5469 8.62109 21.7812C10.3268 22.0026 11.3555 22.1393 11.707 22.1914L10.5938 26.5273C9.20052 26.3451 8.07422 26.1758 7.21484 26.0195L4.92969 25.5898C2.57292 25.1341 1.01042 24.724 0.242188 24.3594V1.39062ZM14.5781 12.9922C14.5781 11.2474 14.7604 10.2383 15.125 9.96484C15.4896 9.69141 15.8997 9.41797 16.3555 9.14453C16.8112 8.85807 17.3125 8.57812 17.8594 8.30469C18.4062 8.03125 18.9727 7.77083 19.5586 7.52344C20.1576 7.27604 20.7435 7.05469 21.3164 6.85938C22.5404 6.44271 23.4518 6.23438 24.0508 6.23438C24.6628 6.23438 25.1576 6.26693 25.5352 6.33203C25.9128 6.38411 26.2578 6.47526 26.5703 6.60547C27.2865 6.90495 27.6901 7.34115 27.7812 7.91406C28.2109 10.6354 28.4258 13.8776 28.4258 17.6406V18.793L19.0703 18.9102V21.4492C20.0859 21.6966 21.2969 21.9245 22.7031 22.1328L26.0625 22.6797C26.9219 22.8099 27.8008 22.9596 28.6992 23.1289L27.5469 27.4062C23.9661 26.8464 20.1641 25.9414 16.1406 24.6914C15.2161 24.3919 14.7409 23.8516 14.7148 23.0703L14.5781 12.9922ZM24.0312 14.5938C24.0312 13.3698 23.9076 12.0807 23.6602 10.7266C23.1393 10.7266 22.7227 10.7526 22.4102 10.8047C22.0977 10.8568 21.7852 10.9284 21.4727 11.0195C21.1602 11.1107 20.8411 11.2148 20.5156 11.332C19.7474 11.6055 19.2396 11.8398 18.9922 12.0352V15.5508L24.0312 15.0039V14.5938ZM34.207 7.79688L38.7773 6.99609L38.8945 10.6875V12.9141L44.5391 11.8789C45.3333 10.6159 45.7305 9.17708 45.7305 7.5625C45.7305 7.13281 45.6914 6.72917 45.6133 6.35156C42.4102 5.45312 37.8789 5.00391 32.0195 5.00391L32.7227 0.355469C38.5169 0.433594 43.4779 0.915365 47.6055 1.80078C48.2174 1.95703 48.8945 2.6276 49.6367 3.8125C50.3398 4.93229 50.6914 5.71354 50.6914 6.15625C50.6914 6.59896 50.6589 7.06771 50.5938 7.5625C50.5286 8.04427 50.431 8.5651 50.3008 9.125C49.819 11.1953 49.2982 12.4844 48.7383 12.9922C48.3737 13.3307 47.3451 13.7604 45.6523 14.2812L45.6133 14.4375L49.5 16.1953C49.6823 16.9766 49.7734 17.7513 49.7734 18.5195C49.7734 19.2747 49.7279 19.9388 49.6367 20.5117C49.5456 21.0846 49.4349 21.625 49.3047 22.1328C48.862 23.7214 48.3867 24.6849 47.8789 25.0234C47.0716 25.5573 44.0052 26.0651 38.6797 26.5469C37.026 26.6901 35.724 26.7747 34.7734 26.8008L34.207 7.79688ZM39.168 22.6797C41.5768 22.4714 43.3346 22.1914 44.4414 21.8398C44.8451 20.5117 45.0469 19.5156 45.0469 18.8516C45.0469 18.1745 45.0273 17.6667 44.9883 17.3281C44.9622 16.9766 44.8516 16.7227 44.6562 16.5664L39.0508 16L39.168 22.6797ZM59.8125 14.4375C59.8125 17.5755 59.9753 20.2969 60.3008 22.6016L64.1484 22.4062C64.8516 19.6198 65.2031 16.8984 65.2031 14.2422C65.2031 13.1745 65.1315 12.224 64.9883 11.3906C64.207 11 61.4466 10.8047 56.707 10.8047H55.7109C55.4375 10.8047 55.138 10.8177 54.8125 10.8438L55.6523 6.3125C55.8737 6.29948 56.0755 6.28646 56.2578 6.27344C56.4531 6.2474 56.6484 6.23438 56.8438 6.23438L57.4297 6.19531C57.625 6.19531 58.1719 6.19531 59.0703 6.19531C61.6484 6.19531 64.474 6.54036 67.5469 7.23047C68.5234 7.47786 69.1224 7.91406 69.3438 8.53906C69.6823 9.5026 69.8516 11.0716 69.8516 13.2461C69.8516 17.2174 69.2461 21.0586 68.0352 24.7695C67.931 25.1081 67.8073 25.3945 67.6641 25.6289C67.5339 25.8633 67.2995 26.013 66.9609 26.0781C66.6224 26.1562 66.2253 26.2279 65.7695 26.293C65.3138 26.3581 64.8646 26.4167 64.4219 26.4688C63.4583 26.5599 62.7943 26.6055 62.4297 26.6055C62.0651 26.6055 61.6745 26.599 61.2578 26.5859C60.8411 26.5859 60.3854 26.5729 59.8906 26.5469C58.5885 26.4818 57.7096 26.3646 57.2539 26.1953C56.7982 26.0391 56.4857 25.7656 56.3164 25.375C56.1602 24.9844 56.0039 24.3594 55.8477 23.5C55.4831 21.4948 55.3008 19.2096 55.3008 16.6445C55.3008 15.668 55.3268 14.6979 55.3789 13.7344L59.8125 12.8555V14.4375ZM74.5977 7.32812L78.7578 6.80078L79.4414 9.76953L82.8789 6.80078H87.6836C87.931 6.80078 88.276 6.98958 88.7188 7.36719C89.4609 7.97917 89.832 8.52604 89.832 9.00781L89.1484 26.0391L84.793 26.3906L84.7148 11.3125C84.5586 11.2604 84.3438 11.2344 84.0703 11.2344C83.7969 11.2344 83.543 11.2474 83.3086 11.2734C83.0872 11.2995 82.8464 11.3385 82.5859 11.3906C81.974 11.4948 81.4727 11.6185 81.082 11.7617L79.6367 12.2891L79.1094 25.8438L74.9492 26.1562L74.5977 7.32812ZM95.5547 12.2305C95.6328 10.5898 95.7565 9.03385 95.9258 7.5625C95.9258 7.5625 96.0495 6.47526 96.2969 4.30078C96.388 3.59766 96.4661 2.88151 96.5312 2.15234C99.3307 1.37109 102.221 0.882812 105.203 0.6875L108.035 12.4062L108.953 21.6055L109.793 21.5273L111.609 2.11328C113.458 1.46224 115.698 1 118.328 0.726562C119.135 0.648438 119.891 0.609375 120.594 0.609375L123.055 12.7969L124.812 25.9609L119.754 26.4883L118.211 13.2461L116.922 4.78906L115.73 4.94531L114.93 13.4414L113.035 25.4336C110.796 25.8503 108.322 26.0911 105.613 26.1562L101.531 5.04297L100.242 5.23828L100.086 13.0703L98.9141 26.3711L94.0312 25.7656L95.5547 12.2305ZM133.191 21.6445L142.664 23.0703L141.629 27.3281L138.68 26.9375C134.344 26.3385 131.089 25.7461 128.914 25.1602L128.66 2.64062C133.257 1.46875 137.632 0.68099 141.785 0.277344L142.469 4.92578L133.113 6L133.309 11.8398L141.707 11.4883L141.395 16.0781L133.348 15.8047L133.191 21.6445ZM147.82 23.8516C147.82 19.8672 147.879 15.5052 147.996 10.7656L147.625 2.03516C147.872 1.98307 148.198 1.91797 148.602 1.83984C148.602 1.83984 149.057 1.75521 149.969 1.58594C150.464 1.49479 150.984 1.40365 151.531 1.3125L153.172 1.03906C154.122 0.895833 155.099 0.791667 156.102 0.726562L161.258 17.0352L162.449 22.6406L163.582 22.5234L163.328 16.2344L163.504 1.03906L168.504 0.609375C168.4 4.52865 168.074 9.61979 167.527 15.8828L167.234 25.4727C164.904 25.9023 162.241 26.1953 159.246 26.3516L154.09 9.84766L152.938 4.69141L151.902 4.84766L152.098 10.7266L152.293 25.9609L147.82 26.3516V23.8516ZM187.723 5.19922C186.199 5.26432 184.344 5.38151 182.156 5.55078L182.332 13.6758L181.883 26L177.527 26.3516L177.293 5.72656C176.16 5.7526 175.112 5.79167 174.148 5.84375C173.198 5.89583 172.391 5.92188 171.727 5.92188L172.078 1.68359C176.583 1.09766 181.629 0.804688 187.215 0.804688L187.723 5.19922ZM194.637 26.1172C194.09 25.987 193.654 25.8112 193.328 25.5898C193.016 25.3685 192.729 24.9258 192.469 24.2617C192.221 23.5846 191.98 22.6927 191.746 21.5859C191.525 20.4661 191.336 19.2878 191.18 18.0508C190.88 15.681 190.73 13.6432 190.73 11.9375C190.73 8.98177 190.809 7.11979 190.965 6.35156C191.121 5.57031 191.284 4.97135 191.453 4.55469C191.622 4.13802 191.844 3.76693 192.117 3.44141C192.625 2.81641 193.328 2.34115 194.227 2.01562C195.125 1.6901 196.089 1.42318 197.117 1.21484C198.146 0.99349 199.24 0.811198 200.398 0.667969C202.703 0.38151 205.184 0.21224 207.84 0.160156L208.562 4.88672C203.914 5.06901 200.19 5.45312 197.391 6.03906C196.818 6.16927 196.342 6.30599 195.965 6.44922C195.809 7.33464 195.73 8.59115 195.73 10.2188C195.73 11.8464 195.75 13.1094 195.789 14.0078C195.828 14.9062 195.887 15.8047 195.965 16.7031C196.134 18.7344 196.401 20.4661 196.766 21.8984C196.948 21.9245 197.137 21.9375 197.332 21.9375C197.527 21.9375 197.885 21.9375 198.406 21.9375C199.63 21.9375 200.88 21.7878 202.156 21.4883C202.807 17.2565 203.133 12.5755 203.133 7.44531L207.996 7.75781C208.061 8.66927 208.094 9.47005 208.094 10.1602C208.094 10.8372 208.068 11.5664 208.016 12.3477C207.977 13.1159 207.918 13.9036 207.84 14.7109C207.762 15.5052 207.671 16.306 207.566 17.1133C207.462 17.9076 207.358 18.6693 207.254 19.3984C207.15 20.1146 207.046 20.7786 206.941 21.3906L206.668 22.9141C206.447 23.9818 206.193 24.6589 205.906 24.9453C205.633 25.2318 205.366 25.4336 205.105 25.5508C204.858 25.6549 204.539 25.7461 204.148 25.8242C203.758 25.9023 203.328 25.9674 202.859 26.0195C202.404 26.0846 201.922 26.1367 201.414 26.1758C200.906 26.2148 200.418 26.2474 199.949 26.2734C199.168 26.2995 198.445 26.3125 197.781 26.3125C196.232 26.3125 195.184 26.2474 194.637 26.1172ZM214.109 7.79688L218.855 6.99609V10.9219L218.738 15.6484L224.344 14.2812C225.138 11.7682 225.535 9.48958 225.535 7.44531C225.535 7.01562 225.509 6.61198 225.457 6.23438C223.257 5.54427 218.914 5.06901 212.43 4.80859L213.172 0.199219C218.732 0.420573 223.549 0.954427 227.625 1.80078C227.977 1.87891 228.536 2.39323 229.305 3.34375C230.06 4.28125 230.451 4.9388 230.477 5.31641C230.516 5.69401 230.535 6.0651 230.535 6.42969V7.52344C230.535 9.21615 230.105 11.4036 229.246 14.0859C228.777 15.5443 228.315 16.4818 227.859 16.8984C227.651 17.0938 227.462 17.237 227.293 17.3281L225.379 17.9531C227.28 20.0234 229.038 22.2956 230.652 24.7695L226.59 27.5234L221.707 18.9297L218.855 19.0859L218.699 26L214.461 26.3516L214.109 7.79688Z" fill="#26809C"/>
</svg>
